<?xml version="1.0" encoding="UTF-8" standalone="no"?>
<!DOCTYPE svg PUBLIC "-//W3C//DTD SVG 1.1//EN"
 "http://www.w3.org/Graphics/SVG/1.1/DTD/svg11.dtd">
<!-- Generated by graphviz version 2.40.1 (20161225.0304)
 -->
<!-- Title: gocallvis Pages: 1 -->
<svg width="340pt" height="184pt"
 viewBox="0.00 0.00 340.00 183.80" xmlns="http://www.w3.org/2000/svg" xmlns:xlink="http://www.w3.org/1999/xlink">
<g id="graph0" class="graph" transform="scale(1 1) rotate(0) translate(0 183.8)">
<title>gocallvis</title>
<polygon fill="#d3d3d3" stroke="transparent" points="0,0 0,-183.8 340,-183.8 340,0 0,0"/>
<text text-anchor="middle" x="46.5133" y="-8.2" font-family="Arial" font-size="14.00" fill="#000000">func_pointer</text>
<g id="clust1" class="cluster">
<title>cluster_focus</title>
<polygon fill="#e6ecfa" stroke="#000000" stroke-width=".5" points="8,-32.8 8,-175.8 332,-175.8 332,-32.8 8,-32.8"/>
<text text-anchor="middle" x="170" y="-155.6" font-family="Arial" font-size="18.00" fill="#000000">main</text>
</g>
<!-- func_pointer.test1 -->
<g id="node1" class="node">
<title>func_pointer.test1</title>
<g id="a_node1"><a xlink:title="func_pointer.test1 | defined in main.go:23&#10;at main.go:25: calling [(func_pointer.A).b]">
<path fill="#add8e6" stroke="#000000" stroke-width=".5" d="M185,-76.8C185,-76.8 155,-76.8 155,-76.8 149,-76.8 143,-70.8 143,-64.8 143,-64.8 143,-52.8 143,-52.8 143,-46.8 149,-40.8 155,-40.8 155,-40.8 185,-40.8 185,-40.8 191,-40.8 197,-46.8 197,-52.8 197,-52.8 197,-64.8 197,-64.8 197,-70.8 191,-76.8 185,-76.8"/>
<text text-anchor="middle" x="170" y="-54.6" font-family="Verdana" font-size="14.00" fill="#000000">test1</text>
</a>
</g>
</g>
<!-- (func_pointer.A).b -->
<g id="node2" class="node">
<title>(func_pointer.A).b</title>
<g id="a_node2"><a xlink:title="(func_pointer.A).b | defined in main.go:9">
<path fill="#add8e6" stroke="#000000" stroke-width=".5" d="M312,-97.8C312,-97.8 282,-97.8 282,-97.8 276,-97.8 270,-91.8 270,-85.8 270,-85.8 270,-73.8 270,-73.8 270,-67.8 276,-61.8 282,-61.8 282,-61.8 312,-61.8 312,-61.8 318,-61.8 324,-67.8 324,-73.8 324,-73.8 324,-85.8 324,-85.8 324,-91.8 318,-97.8 312,-97.8"/>
<text text-anchor="middle" x="297" y="-75.6" font-family="Verdana" font-size="14.00" fill="#000000">(A).b</text>
</a>
</g>
</g>
<!-- func_pointer.test1&#45;&gt;(func_pointer.A).b -->
<g id="edge2" class="edge">
<title>func_pointer.test1&#45;&gt;(func_pointer.A).b</title>
<g id="a_edge2"><a xlink:title="at main.go:25: calling [(func_pointer.A).b]">
<path fill="none" stroke="#000000" stroke-dasharray="5,2" d="M197.2447,-63.305C215.492,-66.3223 239.746,-70.3328 259.7693,-73.6437"/>
<polygon fill="#000000" stroke="#000000" points="259.3633,-77.1241 269.8004,-75.3024 260.5054,-70.2178 259.3633,-77.1241"/>
</a>
</g>
</g>
<!-- func_pointer.main -->
<g id="node3" class="node">
<title>func_pointer.main</title>
<g id="a_node3"><a xlink:title="func_pointer.main | defined in main.go:17&#10;at main.go:20: calling [func_pointer.test2]&#10;at main.go:19: calling [func_pointer.test1]">
<path fill="#add8e6" stroke="#000000" stroke-width=".5" d="M58,-89.8C58,-89.8 28,-89.8 28,-89.8 22,-89.8 16,-83.8 16,-77.8 16,-77.8 16,-65.8 16,-65.8 16,-59.8 22,-53.8 28,-53.8 28,-53.8 58,-53.8 58,-53.8 64,-53.8 70,-59.8 70,-65.8 70,-65.8 70,-77.8 70,-77.8 70,-83.8 64,-89.8 58,-89.8"/>
<text text-anchor="middle" x="43" y="-67.6" font-family="Verdana" font-size="14.00" fill="#000000">main</text>
</a>
</g>
</g>
<!-- func_pointer.main&#45;&gt;func_pointer.test1 -->
<g id="edge3" class="edge">
<title>func_pointer.main&#45;&gt;func_pointer.test1</title>
<g id="a_edge3"><a xlink:title="at main.go:19: calling [func_pointer.test1]">
<path fill="none" stroke="#000000" d="M70.2447,-69.0112C88.492,-67.1433 112.746,-64.6606 132.7693,-62.611"/>
<polygon fill="#000000" stroke="#000000" points="133.2088,-66.0844 142.8004,-61.5842 132.4959,-59.1208 133.2088,-66.0844"/>
</a>
</g>
</g>
<!-- func_pointer.test2 -->
<g id="node4" class="node">
<title>func_pointer.test2</title>
<g id="a_node4"><a xlink:title="func_pointer.test2 | defined in main.go:28&#10;at main.go:29: calling [(func_pointer.A).b]">
<path fill="#add8e6" stroke="#000000" stroke-width=".5" d="M185,-137.8C185,-137.8 155,-137.8 155,-137.8 149,-137.8 143,-131.8 143,-125.8 143,-125.8 143,-113.8 143,-113.8 143,-107.8 149,-101.8 155,-101.8 155,-101.8 185,-101.8 185,-101.8 191,-101.8 197,-107.8 197,-113.8 197,-113.8 197,-125.8 197,-125.8 197,-131.8 191,-137.8 185,-137.8"/>
<text text-anchor="middle" x="170" y="-115.6" font-family="Verdana" font-size="14.00" fill="#000000">test2</text>
</a>
</g>
</g>
<!-- func_pointer.main&#45;&gt;func_pointer.test2 -->
<g id="edge1" class="edge">
<title>func_pointer.main&#45;&gt;func_pointer.test2</title>
<g id="a_edge1"><a xlink:title="at main.go:20: calling [func_pointer.test2]">
<path fill="none" stroke="#000000" d="M70.2447,-82.0972C88.6594,-89.0571 113.1915,-98.3291 133.3193,-105.9364"/>
<polygon fill="#000000" stroke="#000000" points="132.2088,-109.2583 142.8004,-109.5198 134.6836,-102.7104 132.2088,-109.2583"/>
</a>
</g>
</g>
<!-- func_pointer.test2&#45;&gt;(func_pointer.A).b -->
<g id="edge4" class="edge">
<title>func_pointer.test2&#45;&gt;(func_pointer.A).b</title>
<g id="a_edge4"><a xlink:title="at main.go:29: calling [(func_pointer.A).b]">
<path fill="none" stroke="#000000" d="M197.2447,-111.219C215.5757,-105.4455 239.9686,-97.7626 260.0446,-91.4395"/>
<polygon fill="#000000" stroke="#000000" points="261.3137,-94.7093 269.8004,-88.3668 259.2108,-88.0327 261.3137,-94.7093"/>
</a>
</g>
</g>
</g>
</svg>
