<?xml version="1.0" encoding="UTF-8" standalone="no"?>
<!DOCTYPE svg PUBLIC "-//W3C//DTD SVG 1.1//EN"
 "http://www.w3.org/Graphics/SVG/1.1/DTD/svg11.dtd">
<!-- Generated by graphviz version 2.40.1 (20161225.0304)
 -->
<!-- Title: gocallvis Pages: 1 -->
<svg width="213pt" height="245pt"
 viewBox="0.00 0.00 213.00 244.80" xmlns="http://www.w3.org/2000/svg" xmlns:xlink="http://www.w3.org/1999/xlink">
<g id="graph0" class="graph" transform="scale(1 1) rotate(0) translate(0 244.8)">
<title>gocallvis</title>
<polygon fill="#d3d3d3" stroke="transparent" points="0,0 0,-244.8 213,-244.8 213,0 0,0"/>
<text text-anchor="middle" x="49.2286" y="-8.2" font-family="Arial" font-size="14.00" fill="#000000">interface_call</text>
<g id="clust1" class="cluster">
<title>cluster_focus</title>
<polygon fill="#e6ecfa" stroke="#000000" stroke-width=".5" points="8,-32.8 8,-236.8 205,-236.8 205,-32.8 8,-32.8"/>
<text text-anchor="middle" x="106.5" y="-216.6" font-family="Arial" font-size="18.00" fill="#000000">main</text>
</g>
<!-- interface_call.main -->
<g id="node1" class="node">
<title>interface_call.main</title>
<g id="a_node1"><a xlink:title="interface_call.main | defined in main.go:38&#10;at main.go:41: calling [(interface_call.C).A1]&#10;at main.go:42: calling [(interface_call.A).B1]&#10;at main.go:47: calling [(interface_call.A).B1]&#10;at main.go:46: calling [(interface_call.A).A1]">
<path fill="#add8e6" stroke="#000000" stroke-width=".5" d="M58,-137.8C58,-137.8 28,-137.8 28,-137.8 22,-137.8 16,-131.8 16,-125.8 16,-125.8 16,-113.8 16,-113.8 16,-107.8 22,-101.8 28,-101.8 28,-101.8 58,-101.8 58,-101.8 64,-101.8 70,-107.8 70,-113.8 70,-113.8 70,-125.8 70,-125.8 70,-131.8 64,-137.8 58,-137.8"/>
<text text-anchor="middle" x="43" y="-115.6" font-family="Verdana" font-size="14.00" fill="#000000">main</text>
</a>
</g>
</g>
<!-- (interface_call.C).A1 -->
<g id="node2" class="node">
<title>(interface_call.C).A1</title>
<g id="a_node2"><a xlink:title="(interface_call.C).A1 | defined in main.go:30">
<path fill="#add8e6" stroke="#000000" stroke-width="1.5" d="M185,-76.8C185,-76.8 155,-76.8 155,-76.8 149,-76.8 143,-70.8 143,-64.8 143,-64.8 143,-52.8 143,-52.8 143,-46.8 149,-40.8 155,-40.8 155,-40.8 185,-40.8 185,-40.8 191,-40.8 197,-46.8 197,-52.8 197,-52.8 197,-64.8 197,-64.8 197,-70.8 191,-76.8 185,-76.8"/>
<text text-anchor="middle" x="170" y="-54.6" font-family="Verdana" font-size="14.00" fill="#000000">(C).A1</text>
</a>
</g>
</g>
<!-- interface_call.main&#45;&gt;(interface_call.C).A1 -->
<g id="edge1" class="edge">
<title>interface_call.main&#45;&gt;(interface_call.C).A1</title>
<g id="a_edge1"><a xlink:title="at main.go:41: calling [(interface_call.C).A1]">
<path fill="none" stroke="#000000" d="M70.2447,-106.714C88.7431,-97.8289 113.4146,-85.9788 133.5935,-76.2866"/>
<polygon fill="#000000" stroke="#000000" points="135.3016,-79.349 142.8004,-71.8644 132.2709,-73.0391 135.3016,-79.349"/>
</a>
</g>
</g>
<!-- (interface_call.A).B1 -->
<g id="node3" class="node">
<title>(interface_call.A).B1</title>
<g id="a_node3"><a xlink:title="(interface_call.A).B1 | defined in main.go:22">
<path fill="#add8e6" stroke="#000000" stroke-width="1.5" d="M185,-137.8C185,-137.8 155,-137.8 155,-137.8 149,-137.8 143,-131.8 143,-125.8 143,-125.8 143,-113.8 143,-113.8 143,-107.8 149,-101.8 155,-101.8 155,-101.8 185,-101.8 185,-101.8 191,-101.8 197,-107.8 197,-113.8 197,-113.8 197,-125.8 197,-125.8 197,-131.8 191,-137.8 185,-137.8"/>
<text text-anchor="middle" x="170" y="-115.6" font-family="Verdana" font-size="14.00" fill="#000000">(A).B1</text>
</a>
</g>
</g>
<!-- interface_call.main&#45;&gt;(interface_call.A).B1 -->
<g id="edge2" class="edge">
<title>interface_call.main&#45;&gt;(interface_call.A).B1</title>
<g id="a_edge2"><a xlink:title="at main.go:42: calling [(interface_call.A).B1]&#10;at main.go:47: calling [(interface_call.A).B1]">
<path fill="none" stroke="#000000" d="M70.2447,-119.8C88.492,-119.8 112.746,-119.8 132.7693,-119.8"/>
<polygon fill="#000000" stroke="#000000" points="132.8004,-123.3001 142.8004,-119.8 132.8003,-116.3001 132.8004,-123.3001"/>
</a>
</g>
</g>
<!-- (interface_call.A).A1 -->
<g id="node4" class="node">
<title>(interface_call.A).A1</title>
<g id="a_node4"><a xlink:title="(interface_call.A).A1 | defined in main.go:18">
<path fill="#add8e6" stroke="#000000" stroke-width="1.5" d="M185,-198.8C185,-198.8 155,-198.8 155,-198.8 149,-198.8 143,-192.8 143,-186.8 143,-186.8 143,-174.8 143,-174.8 143,-168.8 149,-162.8 155,-162.8 155,-162.8 185,-162.8 185,-162.8 191,-162.8 197,-168.8 197,-174.8 197,-174.8 197,-186.8 197,-186.8 197,-192.8 191,-198.8 185,-198.8"/>
<text text-anchor="middle" x="170" y="-176.6" font-family="Verdana" font-size="14.00" fill="#000000">(A).A1</text>
</a>
</g>
</g>
<!-- interface_call.main&#45;&gt;(interface_call.A).A1 -->
<g id="edge3" class="edge">
<title>interface_call.main&#45;&gt;(interface_call.A).A1</title>
<g id="a_edge3"><a xlink:title="at main.go:46: calling [(interface_call.A).A1]">
<path fill="none" stroke="#000000" d="M70.2447,-132.886C88.7431,-141.7711 113.4146,-153.6212 133.5935,-163.3134"/>
<polygon fill="#000000" stroke="#000000" points="132.2709,-166.5609 142.8004,-167.7356 135.3016,-160.251 132.2709,-166.5609"/>
</a>
</g>
</g>
</g>
</svg>
