<?xml version="1.0" encoding="UTF-8" standalone="no"?>
<!DOCTYPE svg PUBLIC "-//W3C//DTD SVG 1.1//EN"
 "http://www.w3.org/Graphics/SVG/1.1/DTD/svg11.dtd">
<!-- Generated by graphviz version 2.40.1 (20161225.0304)
 -->
<!-- Title: gocallvis Pages: 1 -->
<svg width="497pt" height="428pt"
 viewBox="0.00 0.00 497.17 427.80" xmlns="http://www.w3.org/2000/svg" xmlns:xlink="http://www.w3.org/1999/xlink">
<g id="graph0" class="graph" transform="scale(1 1) rotate(0) translate(0 427.8)">
<title>gocallvis</title>
<polygon fill="#d3d3d3" stroke="transparent" points="0,0 0,-427.8 497.1712,-427.8 497.1712,0 0,0"/>
<text text-anchor="middle" x="42.6227" y="-8.2" font-family="Arial" font-size="14.00" fill="#000000">embedding</text>
<g id="clust1" class="cluster">
<title>cluster_focus</title>
<polygon fill="#e6ecfa" stroke="#000000" stroke-width=".5" points="8,-32.8 8,-419.8 489.1712,-419.8 489.1712,-32.8 8,-32.8"/>
<text text-anchor="middle" x="248.5856" y="-399.6" font-family="Arial" font-size="18.00" fill="#000000">main</text>
</g>
<!-- embedding.interface_call -->
<g id="node1" class="node">
<title>embedding.interface_call</title>
<g id="a_node1"><a xlink:title="embedding.interface_call | defined in main.go:62&#10;at main.go:64: calling [(embedding.A).p]&#10;at main.go:63: calling [(embedding.A).m]&#10;at main.go:63: calling [(embedding.B).m]&#10;at main.go:63: calling [(embedding.C).m]&#10;at main.go:64: calling [(embedding.F).p]&#10;at main.go:63: calling [(embedding.E).m]">
<path fill="#add8e6" stroke="#000000" stroke-width=".5" d="M342.257,-228.8C342.257,-228.8 281.9142,-228.8 281.9142,-228.8 275.9142,-228.8 269.9142,-222.8 269.9142,-216.8 269.9142,-216.8 269.9142,-204.8 269.9142,-204.8 269.9142,-198.8 275.9142,-192.8 281.9142,-192.8 281.9142,-192.8 342.257,-192.8 342.257,-192.8 348.257,-192.8 354.257,-198.8 354.257,-204.8 354.257,-204.8 354.257,-216.8 354.257,-216.8 354.257,-222.8 348.257,-228.8 342.257,-228.8"/>
<text text-anchor="middle" x="312.0856" y="-206.6" font-family="Verdana" font-size="14.00" fill="#000000">interface_call</text>
</a>
</g>
</g>
<!-- (embedding.E).m -->
<g id="node2" class="node">
<title>(embedding.E).m</title>
<g id="a_node2"><a xlink:title="(embedding.E).m | defined in main.go:54">
<path fill="#add8e6" stroke="#000000" stroke-width=".5" d="M469.1712,-76.8C469.1712,-76.8 439.1712,-76.8 439.1712,-76.8 433.1712,-76.8 427.1712,-70.8 427.1712,-64.8 427.1712,-64.8 427.1712,-52.8 427.1712,-52.8 427.1712,-46.8 433.1712,-40.8 439.1712,-40.8 439.1712,-40.8 469.1712,-40.8 469.1712,-40.8 475.1712,-40.8 481.1712,-46.8 481.1712,-52.8 481.1712,-52.8 481.1712,-64.8 481.1712,-64.8 481.1712,-70.8 475.1712,-76.8 469.1712,-76.8"/>
<text text-anchor="middle" x="454.1712" y="-54.6" font-family="Verdana" font-size="14.00" fill="#000000">(E).m</text>
</a>
</g>
</g>
<!-- embedding.interface_call&#45;&gt;(embedding.E).m -->
<g id="edge9" class="edge">
<title>embedding.interface_call&#45;&gt;(embedding.E).m</title>
<g id="a_edge9"><a xlink:title="at main.go:63: calling [(embedding.E).m]">
<path fill="none" stroke="#000000" stroke-dasharray="5,2" d="M328.9426,-192.7667C354.1519,-165.7984 401.7724,-114.8551 430.4723,-84.1525"/>
<polygon fill="#000000" stroke="#000000" points="433.0641,-86.5052 437.3361,-76.8098 427.9504,-81.7251 433.0641,-86.5052"/>
</a>
</g>
</g>
<!-- (embedding.B).m -->
<g id="node3" class="node">
<title>(embedding.B).m</title>
<g id="a_node3"><a xlink:title="(embedding.B).m | defined in main.go:46">
<path fill="#add8e6" stroke="#000000" stroke-width=".5" d="M469.1712,-137.8C469.1712,-137.8 439.1712,-137.8 439.1712,-137.8 433.1712,-137.8 427.1712,-131.8 427.1712,-125.8 427.1712,-125.8 427.1712,-113.8 427.1712,-113.8 427.1712,-107.8 433.1712,-101.8 439.1712,-101.8 439.1712,-101.8 469.1712,-101.8 469.1712,-101.8 475.1712,-101.8 481.1712,-107.8 481.1712,-113.8 481.1712,-113.8 481.1712,-125.8 481.1712,-125.8 481.1712,-131.8 475.1712,-137.8 469.1712,-137.8"/>
<text text-anchor="middle" x="454.1712" y="-115.6" font-family="Verdana" font-size="14.00" fill="#000000">(B).m</text>
</a>
</g>
</g>
<!-- embedding.interface_call&#45;&gt;(embedding.B).m -->
<g id="edge3" class="edge">
<title>embedding.interface_call&#45;&gt;(embedding.B).m</title>
<g id="a_edge3"><a xlink:title="at main.go:63: calling [(embedding.B).m]">
<path fill="none" stroke="#000000" stroke-dasharray="5,2" d="M340.4972,-192.6035C362.8566,-178.2832 394.1564,-158.237 418.2526,-142.8044"/>
<polygon fill="#000000" stroke="#000000" points="420.241,-145.6872 426.7744,-137.3466 416.4657,-139.7925 420.241,-145.6872"/>
</a>
</g>
</g>
<!-- (embedding.A).m -->
<g id="node4" class="node">
<title>(embedding.A).m</title>
<g id="a_node4"><a xlink:title="(embedding.A).m | defined in main.go:38">
<path fill="#add8e6" stroke="#000000" stroke-width=".5" d="M469.1712,-198.8C469.1712,-198.8 439.1712,-198.8 439.1712,-198.8 433.1712,-198.8 427.1712,-192.8 427.1712,-186.8 427.1712,-186.8 427.1712,-174.8 427.1712,-174.8 427.1712,-168.8 433.1712,-162.8 439.1712,-162.8 439.1712,-162.8 469.1712,-162.8 469.1712,-162.8 475.1712,-162.8 481.1712,-168.8 481.1712,-174.8 481.1712,-174.8 481.1712,-186.8 481.1712,-186.8 481.1712,-192.8 475.1712,-198.8 469.1712,-198.8"/>
<text text-anchor="middle" x="454.1712" y="-176.6" font-family="Verdana" font-size="14.00" fill="#000000">(A).m</text>
</a>
</g>
</g>
<!-- embedding.interface_call&#45;&gt;(embedding.A).m -->
<g id="edge2" class="edge">
<title>embedding.interface_call&#45;&gt;(embedding.A).m</title>
<g id="a_edge2"><a xlink:title="at main.go:63: calling [(embedding.A).m]">
<path fill="none" stroke="#000000" stroke-dasharray="5,2" d="M354.3313,-201.8802C374.3013,-197.6637 397.9258,-192.6757 417.1796,-188.6104"/>
<polygon fill="#000000" stroke="#000000" points="418.0294,-192.0082 427.0906,-186.5178 416.5832,-185.1592 418.0294,-192.0082"/>
</a>
</g>
</g>
<!-- (embedding.C).m -->
<g id="node5" class="node">
<title>(embedding.C).m</title>
<g id="a_node5"><a xlink:title="(embedding.C).m | defined in main.go:50">
<path fill="#add8e6" stroke="#000000" stroke-width=".5" d="M469.1712,-259.8C469.1712,-259.8 439.1712,-259.8 439.1712,-259.8 433.1712,-259.8 427.1712,-253.8 427.1712,-247.8 427.1712,-247.8 427.1712,-235.8 427.1712,-235.8 427.1712,-229.8 433.1712,-223.8 439.1712,-223.8 439.1712,-223.8 469.1712,-223.8 469.1712,-223.8 475.1712,-223.8 481.1712,-229.8 481.1712,-235.8 481.1712,-235.8 481.1712,-247.8 481.1712,-247.8 481.1712,-253.8 475.1712,-259.8 469.1712,-259.8"/>
<text text-anchor="middle" x="454.1712" y="-237.6" font-family="Verdana" font-size="14.00" fill="#000000">(C).m</text>
</a>
</g>
</g>
<!-- embedding.interface_call&#45;&gt;(embedding.C).m -->
<g id="edge4" class="edge">
<title>embedding.interface_call&#45;&gt;(embedding.C).m</title>
<g id="a_edge4"><a xlink:title="at main.go:63: calling [(embedding.C).m]">
<path fill="none" stroke="#000000" stroke-dasharray="5,2" d="M354.3313,-220.0171C374.3013,-224.3741 397.9258,-229.5285 417.1796,-233.7292"/>
<polygon fill="#000000" stroke="#000000" points="416.5743,-237.1794 427.0906,-235.8916 418.0665,-230.3403 416.5743,-237.1794"/>
</a>
</g>
</g>
<!-- (embedding.A).p -->
<g id="node6" class="node">
<title>(embedding.A).p</title>
<g id="a_node6"><a xlink:title="(embedding.A).p | defined in main.go:42">
<path fill="#add8e6" stroke="#000000" stroke-width=".5" d="M469.1712,-320.8C469.1712,-320.8 439.1712,-320.8 439.1712,-320.8 433.1712,-320.8 427.1712,-314.8 427.1712,-308.8 427.1712,-308.8 427.1712,-296.8 427.1712,-296.8 427.1712,-290.8 433.1712,-284.8 439.1712,-284.8 439.1712,-284.8 469.1712,-284.8 469.1712,-284.8 475.1712,-284.8 481.1712,-290.8 481.1712,-296.8 481.1712,-296.8 481.1712,-308.8 481.1712,-308.8 481.1712,-314.8 475.1712,-320.8 469.1712,-320.8"/>
<text text-anchor="middle" x="454.1712" y="-298.6" font-family="Verdana" font-size="14.00" fill="#000000">(A).p</text>
</a>
</g>
</g>
<!-- embedding.interface_call&#45;&gt;(embedding.A).p -->
<g id="edge1" class="edge">
<title>embedding.interface_call&#45;&gt;(embedding.A).p</title>
<g id="a_edge1"><a xlink:title="at main.go:64: calling [(embedding.A).p]">
<path fill="none" stroke="#000000" stroke-dasharray="5,2" d="M340.1571,-228.9762C362.6303,-243.5276 394.2929,-264.029 418.5507,-279.7358"/>
<polygon fill="#000000" stroke="#000000" points="416.8257,-282.7885 427.122,-285.2857 420.6303,-276.9127 416.8257,-282.7885"/>
</a>
</g>
</g>
<!-- (embedding.F).p -->
<g id="node7" class="node">
<title>(embedding.F).p</title>
<g id="a_node7"><a xlink:title="(embedding.F).p | defined in main.go:58">
<path fill="#add8e6" stroke="#000000" stroke-width=".5" d="M469.1712,-381.8C469.1712,-381.8 439.1712,-381.8 439.1712,-381.8 433.1712,-381.8 427.1712,-375.8 427.1712,-369.8 427.1712,-369.8 427.1712,-357.8 427.1712,-357.8 427.1712,-351.8 433.1712,-345.8 439.1712,-345.8 439.1712,-345.8 469.1712,-345.8 469.1712,-345.8 475.1712,-345.8 481.1712,-351.8 481.1712,-357.8 481.1712,-357.8 481.1712,-369.8 481.1712,-369.8 481.1712,-375.8 475.1712,-381.8 469.1712,-381.8"/>
<text text-anchor="middle" x="454.1712" y="-359.6" font-family="Verdana" font-size="14.00" fill="#000000">(F).p</text>
</a>
</g>
</g>
<!-- embedding.interface_call&#45;&gt;(embedding.F).p -->
<g id="edge5" class="edge">
<title>embedding.interface_call&#45;&gt;(embedding.F).p</title>
<g id="a_edge5"><a xlink:title="at main.go:64: calling [(embedding.F).p]">
<path fill="none" stroke="#000000" stroke-dasharray="5,2" d="M328.9426,-228.9519C354.1519,-256.0976 401.7724,-307.3761 430.4723,-338.2807"/>
<polygon fill="#000000" stroke="#000000" points="427.9665,-340.7258 437.3361,-345.6717 433.0959,-335.9624 427.9665,-340.7258"/>
</a>
</g>
</g>
<!-- embedding.main -->
<g id="node8" class="node">
<title>embedding.main</title>
<g id="a_node8"><a xlink:title="embedding.main | defined in main.go:67&#10;at main.go:69: calling [embedding.interface_call]&#10;at main.go:70: calling [embedding.all]">
<path fill="#add8e6" stroke="#000000" stroke-width=".5" d="M58,-227.8C58,-227.8 28,-227.8 28,-227.8 22,-227.8 16,-221.8 16,-215.8 16,-215.8 16,-203.8 16,-203.8 16,-197.8 22,-191.8 28,-191.8 28,-191.8 58,-191.8 58,-191.8 64,-191.8 70,-197.8 70,-203.8 70,-203.8 70,-215.8 70,-215.8 70,-221.8 64,-227.8 58,-227.8"/>
<text text-anchor="middle" x="43" y="-205.6" font-family="Verdana" font-size="14.00" fill="#000000">main</text>
</a>
</g>
</g>
<!-- embedding.main&#45;&gt;embedding.interface_call -->
<g id="edge6" class="edge">
<title>embedding.main&#45;&gt;embedding.interface_call</title>
<g id="a_edge6"><a xlink:title="at main.go:69: calling [embedding.interface_call]">
<path fill="none" stroke="#000000" d="M70.1585,-208.7651C90.2684,-208.0524 118.3389,-207.1698 143,-206.8 166.9973,-206.4401 173.0036,-206.3831 197,-206.8 217.5116,-207.1563 240.0702,-207.8697 259.7393,-208.5966"/>
<polygon fill="#000000" stroke="#000000" points="259.6098,-212.0941 269.7354,-208.9761 259.8754,-205.0991 259.6098,-212.0941"/>
</a>
</g>
</g>
<!-- embedding.all -->
<g id="node9" class="node">
<title>embedding.all</title>
<g id="a_node9"><a xlink:title="embedding.all | defined in main.go:73&#10;at main.go:82: calling [embedding.interface_call]&#10;at main.go:83: calling [embedding.interface_call]&#10;at main.go:84: calling [embedding.interface_call]&#10;at main.go:85: calling [embedding.interface_call]&#10;at main.go:86: calling [embedding.interface_call]&#10;at main.go:87: calling [embedding.interface_call]&#10;at main.go:88: calling [embedding.interface_call]&#10;at main.go:89: calling [embedding.interface_call]">
<path fill="#add8e6" stroke="#000000" stroke-width=".5" d="M185,-254.8C185,-254.8 155,-254.8 155,-254.8 149,-254.8 143,-248.8 143,-242.8 143,-242.8 143,-230.8 143,-230.8 143,-224.8 149,-218.8 155,-218.8 155,-218.8 185,-218.8 185,-218.8 191,-218.8 197,-224.8 197,-230.8 197,-230.8 197,-242.8 197,-242.8 197,-248.8 191,-254.8 185,-254.8"/>
<text text-anchor="middle" x="170" y="-232.6" font-family="Verdana" font-size="14.00" fill="#000000">all</text>
</a>
</g>
</g>
<!-- embedding.main&#45;&gt;embedding.all -->
<g id="edge8" class="edge">
<title>embedding.main&#45;&gt;embedding.all</title>
<g id="a_edge8"><a xlink:title="at main.go:70: calling [embedding.all]">
<path fill="none" stroke="#000000" d="M70.2447,-215.5922C88.492,-219.4715 112.746,-224.6279 132.7693,-228.8848"/>
<polygon fill="#000000" stroke="#000000" points="132.2911,-232.3613 142.8004,-231.0174 133.7468,-225.5143 132.2911,-232.3613"/>
</a>
</g>
</g>
<!-- embedding.all&#45;&gt;embedding.interface_call -->
<g id="edge7" class="edge">
<title>embedding.all&#45;&gt;embedding.interface_call</title>
<g id="a_edge7"><a xlink:title="at main.go:82: calling [embedding.interface_call]&#10;at main.go:83: calling [embedding.interface_call]&#10;at main.go:84: calling [embedding.interface_call]&#10;at main.go:85: calling [embedding.interface_call]&#10;at main.go:86: calling [embedding.interface_call]&#10;at main.go:87: calling [embedding.interface_call]&#10;at main.go:88: calling [embedding.interface_call]&#10;at main.go:89: calling [embedding.interface_call]">
<path fill="none" stroke="#000000" d="M197.0597,-231.8484C214.7845,-228.605 238.5313,-224.2596 259.8452,-220.3594"/>
<polygon fill="#000000" stroke="#000000" points="260.5485,-223.7889 269.7551,-218.546 259.2884,-216.9032 260.5485,-223.7889"/>
</a>
</g>
</g>
</g>
</svg>
