<?xml version="1.0" encoding="UTF-8" standalone="no"?>
<!DOCTYPE svg PUBLIC "-//W3C//DTD SVG 1.1//EN"
 "http://www.w3.org/Graphics/SVG/1.1/DTD/svg11.dtd">
<!-- Generated by graphviz version 2.40.1 (20161225.0304)
 -->
<!-- Title: gocallvis Pages: 1 -->
<svg width="340pt" height="211pt"
 viewBox="0.00 0.00 340.00 210.80" xmlns="http://www.w3.org/2000/svg" xmlns:xlink="http://www.w3.org/1999/xlink">
<g id="graph0" class="graph" transform="scale(1 1) rotate(0) translate(0 210.8)">
<title>gocallvis</title>
<polygon fill="#d3d3d3" stroke="transparent" points="0,0 0,-210.8 340,-210.8 340,0 0,0"/>
<text text-anchor="middle" x="78.0217" y="-8.2" font-family="Arial" font-size="14.00" fill="#000000">interface_any_position</text>
<g id="clust1" class="cluster">
<title>cluster_focus</title>
<polygon fill="#e6ecfa" stroke="#000000" stroke-width=".5" points="8,-32.8 8,-202.8 332,-202.8 332,-32.8 8,-32.8"/>
<text text-anchor="middle" x="170" y="-182.6" font-family="Arial" font-size="18.00" fill="#000000">main</text>
</g>
<!-- interface_any_position.passInf -->
<g id="node1" class="node">
<title>interface_any_position.passInf</title>
<g id="a_node1"><a xlink:title="interface_any_position.passInf | defined in main.go:13&#10;at main.go:14: calling [(interface_any_position.S).f]">
<path fill="#add8e6" stroke="#000000" stroke-width=".5" d="M185,-76.8C185,-76.8 155,-76.8 155,-76.8 149,-76.8 143,-70.8 143,-64.8 143,-64.8 143,-52.8 143,-52.8 143,-46.8 149,-40.8 155,-40.8 155,-40.8 185,-40.8 185,-40.8 191,-40.8 197,-46.8 197,-52.8 197,-52.8 197,-64.8 197,-64.8 197,-70.8 191,-76.8 185,-76.8"/>
<text text-anchor="middle" x="170" y="-54.6" font-family="Verdana" font-size="14.00" fill="#000000">passInf</text>
</a>
</g>
</g>
<!-- (interface_any_position.S).f -->
<g id="node2" class="node">
<title>(interface_any_position.S).f</title>
<g id="a_node2"><a xlink:title="(interface_any_position.S).f | defined in main.go:9">
<path fill="#add8e6" stroke="#000000" stroke-width=".5" d="M312,-120.8C312,-120.8 282,-120.8 282,-120.8 276,-120.8 270,-114.8 270,-108.8 270,-108.8 270,-96.8 270,-96.8 270,-90.8 276,-84.8 282,-84.8 282,-84.8 312,-84.8 312,-84.8 318,-84.8 324,-90.8 324,-96.8 324,-96.8 324,-108.8 324,-108.8 324,-114.8 318,-120.8 312,-120.8"/>
<text text-anchor="middle" x="297" y="-98.6" font-family="Verdana" font-size="14.00" fill="#000000">(S).f</text>
</a>
</g>
</g>
<!-- interface_any_position.passInf&#45;&gt;(interface_any_position.S).f -->
<g id="edge1" class="edge">
<title>interface_any_position.passInf&#45;&gt;(interface_any_position.S).f</title>
<g id="a_edge1"><a xlink:title="at main.go:14: calling [(interface_any_position.S).f]">
<path fill="none" stroke="#000000" stroke-dasharray="5,2" d="M197.2447,-68.2391C215.6594,-74.619 240.1915,-83.1183 260.3193,-90.0917"/>
<polygon fill="#000000" stroke="#000000" points="259.2056,-93.4099 269.8004,-93.3765 261.4972,-86.7956 259.2056,-93.4099"/>
</a>
</g>
</g>
<!-- interface_any_position.main$1 -->
<g id="node3" class="node">
<title>interface_any_position.main$1</title>
<g id="a_node3"><a xlink:title="interface_any_position.main$1 | defined in main.go:22&#10;at main.go:23: calling [(interface_any_position.S).f]">
<polygon fill="#add8e6" stroke="#000000" stroke-dasharray="1,5" points="197,-164.8 143,-164.8 143,-128.8 197,-128.8 197,-164.8"/>
<text text-anchor="middle" x="170" y="-142.6" font-family="Verdana" font-size="14.00" fill="#000000">main$1</text>
</a>
</g>
</g>
<!-- interface_any_position.main$1&#45;&gt;(interface_any_position.S).f -->
<g id="edge2" class="edge">
<title>interface_any_position.main$1&#45;&gt;(interface_any_position.S).f</title>
<g id="a_edge2"><a xlink:title="at main.go:23: calling [(interface_any_position.S).f]">
<path fill="none" stroke="#000000" stroke-dasharray="5,2" d="M197.2447,-137.3609C215.6594,-130.981 240.1915,-122.4817 260.3193,-115.5083"/>
<polygon fill="#000000" stroke="#000000" points="261.4972,-118.8044 269.8004,-112.2235 259.2056,-112.1901 261.4972,-118.8044"/>
</a>
</g>
</g>
<!-- interface_any_position.main -->
<g id="node4" class="node">
<title>interface_any_position.main</title>
<g id="a_node4"><a xlink:title="interface_any_position.main | defined in main.go:18&#10;at main.go:20: calling [interface_any_position.passInf]&#10;at main.go:22: calling [interface_any_position.main$1]&#10;at main.go:20: calling [(interface_any_position.S).f]">
<path fill="#add8e6" stroke="#000000" stroke-width=".5" d="M58,-120.8C58,-120.8 28,-120.8 28,-120.8 22,-120.8 16,-114.8 16,-108.8 16,-108.8 16,-96.8 16,-96.8 16,-90.8 22,-84.8 28,-84.8 28,-84.8 58,-84.8 58,-84.8 64,-84.8 70,-90.8 70,-96.8 70,-96.8 70,-108.8 70,-108.8 70,-114.8 64,-120.8 58,-120.8"/>
<text text-anchor="middle" x="43" y="-98.6" font-family="Verdana" font-size="14.00" fill="#000000">main</text>
</a>
</g>
</g>
<!-- interface_any_position.main&#45;&gt;interface_any_position.passInf -->
<g id="edge3" class="edge">
<title>interface_any_position.main&#45;&gt;interface_any_position.passInf</title>
<g id="a_edge3"><a xlink:title="at main.go:20: calling [interface_any_position.passInf]">
<path fill="none" stroke="#000000" d="M70.2447,-93.3609C88.6594,-86.981 113.1915,-78.4817 133.3193,-71.5083"/>
<polygon fill="#000000" stroke="#000000" points="134.4972,-74.8044 142.8004,-68.2235 132.2056,-68.1901 134.4972,-74.8044"/>
</a>
</g>
</g>
<!-- interface_any_position.main&#45;&gt;(interface_any_position.S).f -->
<g id="edge5" class="edge">
<title>interface_any_position.main&#45;&gt;(interface_any_position.S).f</title>
<g id="a_edge5"><a xlink:title="at main.go:20: calling [(interface_any_position.S).f]">
<path fill="none" stroke="#000000" stroke-dasharray="5,2" d="M70.1824,-102.8C115.7996,-102.8 207.8318,-102.8 259.5437,-102.8"/>
<polygon fill="#000000" stroke="#000000" points="259.6291,-106.3001 269.6291,-102.8 259.629,-99.3001 259.6291,-106.3001"/>
</a>
</g>
</g>
<!-- interface_any_position.main&#45;&gt;interface_any_position.main$1 -->
<g id="edge4" class="edge">
<title>interface_any_position.main&#45;&gt;interface_any_position.main$1</title>
<g id="a_edge4"><a xlink:title="at main.go:22: calling [interface_any_position.main$1]">
<path fill="none" stroke="#000000" d="M70.2447,-112.2391C84.9764,-117.343 103.6233,-123.8034 120.7983,-129.7537"/>
<polygon fill="#000000" stroke="#000000" points="132.2056,-137.41 142.8004,-137.3765 134.4972,-130.7957 132.2056,-137.41"/>
<polyline fill="none" stroke="#000000" points="133.3514,-134.1028 128.6269,-132.466 "/>
<ellipse fill="none" stroke="#000000" cx="124.8473" cy="-131.1565" rx="4" ry="4"/>
</a>
</g>
</g>
</g>
</svg>
