<?xml version="1.0" encoding="UTF-8" standalone="no"?>
<!DOCTYPE svg PUBLIC "-//W3C//DTD SVG 1.1//EN"
 "http://www.w3.org/Graphics/SVG/1.1/DTD/svg11.dtd">
<!-- Generated by graphviz version 2.40.1 (20161225.0304)
 -->
<!-- Title: gocallvis Pages: 1 -->
<svg width="467pt" height="292pt"
 viewBox="0.00 0.00 467.00 291.80" xmlns="http://www.w3.org/2000/svg" xmlns:xlink="http://www.w3.org/1999/xlink">
<g id="graph0" class="graph" transform="scale(1 1) rotate(0) translate(0 291.8)">
<title>gocallvis</title>
<polygon fill="#d3d3d3" stroke="transparent" points="0,0 0,-291.8 467,-291.8 467,0 0,0"/>
<text text-anchor="middle" x="78.0217" y="-8.2" font-family="Arial" font-size="14.00" fill="#000000">interface_any_position</text>
<g id="clust1" class="cluster">
<title>cluster_focus</title>
<polygon fill="#e6ecfa" stroke="#000000" stroke-width=".5" points="8,-32.8 8,-283.8 459,-283.8 459,-32.8 8,-32.8"/>
<text text-anchor="middle" x="233.5" y="-263.6" font-family="Arial" font-size="18.00" fill="#000000">main</text>
</g>
<!-- interface_any_position.passInf -->
<g id="node1" class="node">
<title>interface_any_position.passInf</title>
<g id="a_node1"><a xlink:title="interface_any_position.passInf | defined in main.go:18&#10;at main.go:19: calling [(interface_any_position.T).f]&#10;at main.go:19: calling [(interface_any_position.S).f]">
<path fill="#add8e6" stroke="#000000" stroke-width=".5" d="M312,-130.8C312,-130.8 282,-130.8 282,-130.8 276,-130.8 270,-124.8 270,-118.8 270,-118.8 270,-106.8 270,-106.8 270,-100.8 276,-94.8 282,-94.8 282,-94.8 312,-94.8 312,-94.8 318,-94.8 324,-100.8 324,-106.8 324,-106.8 324,-118.8 324,-118.8 324,-124.8 318,-130.8 312,-130.8"/>
<text text-anchor="middle" x="297" y="-108.6" font-family="Verdana" font-size="14.00" fill="#000000">passInf</text>
</a>
</g>
</g>
<!-- (interface_any_position.S).f -->
<g id="node2" class="node">
<title>(interface_any_position.S).f</title>
<g id="a_node2"><a xlink:title="(interface_any_position.S).f | defined in main.go:10">
<path fill="#add8e6" stroke="#000000" stroke-width=".5" d="M439,-99.8C439,-99.8 409,-99.8 409,-99.8 403,-99.8 397,-93.8 397,-87.8 397,-87.8 397,-75.8 397,-75.8 397,-69.8 403,-63.8 409,-63.8 409,-63.8 439,-63.8 439,-63.8 445,-63.8 451,-69.8 451,-75.8 451,-75.8 451,-87.8 451,-87.8 451,-93.8 445,-99.8 439,-99.8"/>
<text text-anchor="middle" x="424" y="-77.6" font-family="Verdana" font-size="14.00" fill="#000000">(S).f</text>
</a>
</g>
</g>
<!-- interface_any_position.passInf&#45;&gt;(interface_any_position.S).f -->
<g id="edge11" class="edge">
<title>interface_any_position.passInf&#45;&gt;(interface_any_position.S).f</title>
<g id="a_edge11"><a xlink:title="at main.go:19: calling [(interface_any_position.S).f]">
<path fill="none" stroke="#000000" stroke-dasharray="5,2" d="M324.2447,-106.1497C342.5757,-101.6752 366.9686,-95.721 387.0446,-90.8206"/>
<polygon fill="#000000" stroke="#000000" points="387.9156,-94.2108 396.8004,-88.4393 386.2556,-87.4105 387.9156,-94.2108"/>
</a>
</g>
</g>
<!-- (interface_any_position.T).f -->
<g id="node3" class="node">
<title>(interface_any_position.T).f</title>
<g id="a_node3"><a xlink:title="(interface_any_position.T).f | defined in main.go:14">
<path fill="#add8e6" stroke="#000000" stroke-width=".5" d="M439,-207.8C439,-207.8 409,-207.8 409,-207.8 403,-207.8 397,-201.8 397,-195.8 397,-195.8 397,-183.8 397,-183.8 397,-177.8 403,-171.8 409,-171.8 409,-171.8 439,-171.8 439,-171.8 445,-171.8 451,-177.8 451,-183.8 451,-183.8 451,-195.8 451,-195.8 451,-201.8 445,-207.8 439,-207.8"/>
<text text-anchor="middle" x="424" y="-185.6" font-family="Verdana" font-size="14.00" fill="#000000">(T).f</text>
</a>
</g>
</g>
<!-- interface_any_position.passInf&#45;&gt;(interface_any_position.T).f -->
<g id="edge4" class="edge">
<title>interface_any_position.passInf&#45;&gt;(interface_any_position.T).f</title>
<g id="a_edge4"><a xlink:title="at main.go:19: calling [(interface_any_position.T).f]">
<path fill="none" stroke="#000000" stroke-dasharray="5,2" d="M324.2447,-129.3184C342.9105,-140.6355 367.8617,-155.7634 388.1403,-168.0583"/>
<polygon fill="#000000" stroke="#000000" points="386.4347,-171.1172 396.8004,-173.3089 390.0639,-165.1314 386.4347,-171.1172"/>
</a>
</g>
</g>
<!-- interface_any_position.main -->
<g id="node4" class="node">
<title>interface_any_position.main</title>
<g id="a_node4"><a xlink:title="interface_any_position.main | defined in main.go:23&#10;at main.go:32: calling [interface_any_position.main$2]&#10;at main.go:39: calling [(interface_any_position.T).f]&#10;at main.go:25: calling [(interface_any_position.T).f]&#10;at main.go:28: calling [interface_any_position.main$1]&#10;at main.go:39: calling [(interface_any_position.S).f]&#10;at main.go:25: calling [(interface_any_position.S).f]&#10;at main.go:25: calling [interface_any_position.passInf]">
<path fill="#add8e6" stroke="#000000" stroke-width=".5" d="M58,-196.8C58,-196.8 28,-196.8 28,-196.8 22,-196.8 16,-190.8 16,-184.8 16,-184.8 16,-172.8 16,-172.8 16,-166.8 22,-160.8 28,-160.8 28,-160.8 58,-160.8 58,-160.8 64,-160.8 70,-166.8 70,-172.8 70,-172.8 70,-184.8 70,-184.8 70,-190.8 64,-196.8 58,-196.8"/>
<text text-anchor="middle" x="43" y="-174.6" font-family="Verdana" font-size="14.00" fill="#000000">main</text>
</a>
</g>
</g>
<!-- interface_any_position.main&#45;&gt;interface_any_position.passInf -->
<g id="edge12" class="edge">
<title>interface_any_position.main&#45;&gt;interface_any_position.passInf</title>
<g id="a_edge12"><a xlink:title="at main.go:25: calling [interface_any_position.passInf]">
<path fill="none" stroke="#000000" d="M70.2253,-178.032C101.4117,-176.5619 153.7774,-172.2784 197,-159.8 219.0732,-153.4274 242.3801,-142.7306 260.9352,-133.1504"/>
<polygon fill="#000000" stroke="#000000" points="262.6941,-136.1797 269.9041,-128.4165 259.4266,-129.9891 262.6941,-136.1797"/>
</a>
</g>
</g>
<!-- interface_any_position.main&#45;&gt;(interface_any_position.S).f -->
<g id="edge10" class="edge">
<title>interface_any_position.main&#45;&gt;(interface_any_position.S).f</title>
<g id="a_edge10"><a xlink:title="at main.go:39: calling [(interface_any_position.S).f]&#10;at main.go:25: calling [(interface_any_position.S).f]">
<path fill="none" stroke="#000000" stroke-dasharray="5,2" d="M49.8301,-160.6075C65.1365,-123.3408 105.9462,-41.8 170,-41.8 170,-41.8 170,-41.8 297,-41.8 328.4274,-41.8 362.2928,-53.0813 387.1431,-63.6616"/>
<polygon fill="#000000" stroke="#000000" points="385.9743,-66.9715 396.5359,-67.8099 388.8024,-60.5682 385.9743,-66.9715"/>
</a>
</g>
</g>
<!-- interface_any_position.main&#45;&gt;(interface_any_position.T).f -->
<g id="edge3" class="edge">
<title>interface_any_position.main&#45;&gt;(interface_any_position.T).f</title>
<g id="a_edge3"><a xlink:title="at main.go:39: calling [(interface_any_position.T).f]&#10;at main.go:25: calling [(interface_any_position.T).f]">
<path fill="none" stroke="#000000" stroke-dasharray="5,2" d="M62.905,-196.8348C86.606,-216.3762 128.255,-244.8 170,-244.8 170,-244.8 170,-244.8 297,-244.8 330.8111,-244.8 365.8246,-228.1817 390.5026,-213.2147"/>
<polygon fill="#000000" stroke="#000000" points="392.5004,-216.093 399.1055,-207.8091 388.7761,-210.1659 392.5004,-216.093"/>
</a>
</g>
</g>
<!-- interface_any_position.main$1 -->
<g id="node5" class="node">
<title>interface_any_position.main$1</title>
<g id="a_node5"><a xlink:title="interface_any_position.main$1 | defined in main.go:28&#10;at main.go:29: calling [(interface_any_position.S).f]&#10;at main.go:29: calling [(interface_any_position.T).f]">
<polygon fill="#add8e6" stroke="#000000" stroke-dasharray="1,5" points="324,-218.8 270,-218.8 270,-182.8 324,-182.8 324,-218.8"/>
<text text-anchor="middle" x="297" y="-196.6" font-family="Verdana" font-size="14.00" fill="#000000">main$1</text>
</a>
</g>
</g>
<!-- interface_any_position.main&#45;&gt;interface_any_position.main$1 -->
<g id="edge7" class="edge">
<title>interface_any_position.main&#45;&gt;interface_any_position.main$1</title>
<g id="a_edge7"><a xlink:title="at main.go:28: calling [interface_any_position.main$1]">
<path fill="none" stroke="#000000" d="M70.269,-182.0242C81.3482,-183.2835 94.2774,-184.6887 106,-185.8 153.6936,-190.3212 208.1801,-194.5031 246.7187,-197.2964"/>
<polygon fill="#000000" stroke="#000000" points="259.5512,-201.7198 269.7748,-198.9396 260.0489,-194.7375 259.5512,-201.7198"/>
<polyline fill="none" stroke="#000000" points="259.8001,-198.2286 254.8127,-197.8732 "/>
<ellipse fill="none" stroke="#000000" cx="250.8228" cy="-197.5888" rx="4" ry="4"/>
</a>
</g>
</g>
<!-- interface_any_position.main$2 -->
<g id="node6" class="node">
<title>interface_any_position.main$2</title>
<g id="a_node6"><a xlink:title="interface_any_position.main$2 | defined in main.go:32&#10;at main.go:33: calling [(interface_any_position.T).f]&#10;at main.go:33: calling [interface_any_position.passInf]&#10;at main.go:33: calling [(interface_any_position.S).f]">
<polygon fill="#add8e6" stroke="#000000" stroke-dasharray="1,5" points="197,-146.8 143,-146.8 143,-110.8 197,-110.8 197,-146.8"/>
<text text-anchor="middle" x="170" y="-124.6" font-family="Verdana" font-size="14.00" fill="#000000">main$2</text>
</a>
</g>
</g>
<!-- interface_any_position.main&#45;&gt;interface_any_position.main$2 -->
<g id="edge2" class="edge">
<title>interface_any_position.main&#45;&gt;interface_any_position.main$2</title>
<g id="a_edge2"><a xlink:title="at main.go:32: calling [interface_any_position.main$2]">
<path fill="none" stroke="#000000" d="M70.2447,-168.0737C85.1438,-162.2079 104.0476,-154.7655 121.3832,-147.9405"/>
<polygon fill="#000000" stroke="#000000" points="134.7777,-146.4286 142.8004,-139.5085 132.2134,-139.9152 134.7777,-146.4286"/>
<polyline fill="none" stroke="#000000" points="133.4955,-143.1719 128.8431,-145.0035 "/>
<ellipse fill="none" stroke="#000000" cx="125.1212" cy="-146.4689" rx="4" ry="4"/>
</a>
</g>
</g>
<!-- interface_any_position.main$1&#45;&gt;(interface_any_position.S).f -->
<g id="edge5" class="edge">
<title>interface_any_position.main$1&#45;&gt;(interface_any_position.S).f</title>
<g id="a_edge5"><a xlink:title="at main.go:29: calling [(interface_any_position.S).f]">
<path fill="none" stroke="#000000" stroke-dasharray="5,2" d="M316.2886,-182.7265C337.8278,-162.5441 372.8399,-129.7374 397.0719,-107.0318"/>
<polygon fill="#000000" stroke="#000000" points="399.6259,-109.4352 404.5299,-100.0436 394.8396,-104.3271 399.6259,-109.4352"/>
</a>
</g>
</g>
<!-- interface_any_position.main$1&#45;&gt;(interface_any_position.T).f -->
<g id="edge6" class="edge">
<title>interface_any_position.main$1&#45;&gt;(interface_any_position.T).f</title>
<g id="a_edge6"><a xlink:title="at main.go:29: calling [(interface_any_position.T).f]">
<path fill="none" stroke="#000000" stroke-dasharray="5,2" d="M324.2447,-198.4402C342.492,-196.8598 366.746,-194.759 386.7693,-193.0247"/>
<polygon fill="#000000" stroke="#000000" points="387.1397,-196.5058 396.8004,-192.1559 386.5356,-189.5319 387.1397,-196.5058"/>
</a>
</g>
</g>
<!-- interface_any_position.main$2&#45;&gt;interface_any_position.passInf -->
<g id="edge8" class="edge">
<title>interface_any_position.main$2&#45;&gt;interface_any_position.passInf</title>
<g id="a_edge8"><a xlink:title="at main.go:33: calling [interface_any_position.passInf]">
<path fill="none" stroke="#000000" d="M197.2447,-125.3676C215.492,-123.0687 239.746,-120.0131 259.7693,-117.4905"/>
<polygon fill="#000000" stroke="#000000" points="260.3163,-120.9493 269.8004,-116.2267 259.4413,-114.0042 260.3163,-120.9493"/>
</a>
</g>
</g>
<!-- interface_any_position.main$2&#45;&gt;(interface_any_position.S).f -->
<g id="edge9" class="edge">
<title>interface_any_position.main$2&#45;&gt;(interface_any_position.S).f</title>
<g id="a_edge9"><a xlink:title="at main.go:33: calling [(interface_any_position.S).f]">
<path fill="none" stroke="#000000" stroke-dasharray="5,2" d="M197.3224,-112.3708C216.8175,-101.632 244.0707,-88.5661 270,-82.8 309.1589,-74.092 355.3158,-75.2478 386.8166,-77.6965"/>
<polygon fill="#000000" stroke="#000000" points="386.6432,-81.1944 396.9063,-78.5641 387.243,-74.2202 386.6432,-81.1944"/>
</a>
</g>
</g>
<!-- interface_any_position.main$2&#45;&gt;(interface_any_position.T).f -->
<g id="edge1" class="edge">
<title>interface_any_position.main$2&#45;&gt;(interface_any_position.T).f</title>
<g id="a_edge1"><a xlink:title="at main.go:33: calling [(interface_any_position.T).f]">
<path fill="none" stroke="#000000" stroke-dasharray="5,2" d="M197.1824,-135.3281C242.8948,-146.3062 335.2163,-168.4779 386.8671,-180.8822"/>
<polygon fill="#000000" stroke="#000000" points="386.0882,-184.2947 396.6291,-183.2267 387.7229,-177.4882 386.0882,-184.2947"/>
</a>
</g>
</g>
</g>
</svg>
