<?xml version="1.0" encoding="UTF-8" standalone="no"?>
<!DOCTYPE svg PUBLIC "-//W3C//DTD SVG 1.1//EN"
 "http://www.w3.org/Graphics/SVG/1.1/DTD/svg11.dtd">
<!-- Generated by graphviz version 2.40.1 (20161225.0304)
 -->
<!-- Title: gocallvis Pages: 1 -->
<svg width="552pt" height="250pt"
 viewBox="0.00 0.00 551.84 249.80" xmlns="http://www.w3.org/2000/svg" xmlns:xlink="http://www.w3.org/1999/xlink">
<g id="graph0" class="graph" transform="scale(1 1) rotate(0) translate(0 249.8)">
<title>gocallvis</title>
<polygon fill="#d3d3d3" stroke="transparent" points="0,0 0,-249.8 551.8388,-249.8 551.8388,0 0,0"/>
<text text-anchor="middle" x="23.9439" y="-8.2" font-family="Arial" font-size="14.00" fill="#000000">CGO</text>
<g id="clust1" class="cluster">
<title>cluster_focus</title>
<polygon fill="#e6ecfa" stroke="#000000" stroke-width=".5" points="8,-98.8 8,-241.8 432.8388,-241.8 432.8388,-98.8 8,-98.8"/>
<text text-anchor="middle" x="220.4194" y="-221.6" font-family="Arial" font-size="18.00" fill="#000000">main</text>
</g>
<!-- CGO._Cfunc_test -->
<g id="node1" class="node">
<title>CGO._Cfunc_test</title>
<g id="a_node1"><a xlink:title="CGO._Cfunc_test | defined in 850c0c4bee3762953f7d98d785e2b77a2d9539167f7c95a53bce47cbe7436839&#45;d:37&#10;at 850c0c4bee3762953f7d98d785e2b77a2d9539167f7c95a53bce47cbe7436839&#45;d:38: calling [CGO._cgo_runtime_cgocall]">
<path fill="#add8e6" stroke="#000000" stroke-width=".5" d="M206.4791,-203.8C206.4791,-203.8 155.1731,-203.8 155.1731,-203.8 149.1731,-203.8 143.1731,-197.8 143.1731,-191.8 143.1731,-191.8 143.1731,-179.8 143.1731,-179.8 143.1731,-173.8 149.1731,-167.8 155.1731,-167.8 155.1731,-167.8 206.4791,-167.8 206.4791,-167.8 212.4791,-167.8 218.4791,-173.8 218.4791,-179.8 218.4791,-179.8 218.4791,-191.8 218.4791,-191.8 218.4791,-197.8 212.4791,-203.8 206.4791,-203.8"/>
<text text-anchor="middle" x="180.8261" y="-181.6" font-family="Verdana" font-size="14.00" fill="#000000">_Cfunc_test</text>
</a>
</g>
</g>
<!-- CGO._cgo_runtime_cgocall -->
<g id="node2" class="node">
<title>CGO._cgo_runtime_cgocall</title>
<g id="a_node2"><a xlink:title="CGO._cgo_runtime_cgocall | defined in 850c0c4bee3762953f7d98d785e2b77a2d9539167f7c95a53bce47cbe7436839&#45;d:23">
<path fill="#add8e6" stroke="#000000" stroke-width=".5" d="M412.9322,-203.8C412.9322,-203.8 303.5588,-203.8 303.5588,-203.8 297.5588,-203.8 291.5588,-197.8 291.5588,-191.8 291.5588,-191.8 291.5588,-179.8 291.5588,-179.8 291.5588,-173.8 297.5588,-167.8 303.5588,-167.8 303.5588,-167.8 412.9322,-167.8 412.9322,-167.8 418.9322,-167.8 424.9322,-173.8 424.9322,-179.8 424.9322,-179.8 424.9322,-191.8 424.9322,-191.8 424.9322,-197.8 418.9322,-203.8 412.9322,-203.8"/>
<text text-anchor="middle" x="358.2455" y="-181.6" font-family="Verdana" font-size="14.00" fill="#000000">_cgo_runtime_cgocall</text>
</a>
</g>
</g>
<!-- CGO._Cfunc_test&#45;&gt;CGO._cgo_runtime_cgocall -->
<g id="edge1" class="edge">
<title>CGO._Cfunc_test&#45;&gt;CGO._cgo_runtime_cgocall</title>
<g id="a_edge1"><a xlink:title="at 850c0c4bee3762953f7d98d785e2b77a2d9539167f7c95a53bce47cbe7436839&#45;d:38: calling [CGO._cgo_runtime_cgocall]">
<path fill="none" stroke="#000000" d="M218.887,-185.8C237.17,-185.8 259.7696,-185.8 281.4092,-185.8"/>
<polygon fill="#000000" stroke="#000000" points="281.5974,-189.3001 291.5974,-185.8 281.5973,-182.3001 281.5974,-189.3001"/>
</a>
</g>
</g>
<!-- test -->
<g id="node5" class="node">
<title>test</title>
<path fill="#f0fff0" stroke="#000000" d="M373.2455,-90.8C373.2455,-90.8 343.2455,-90.8 343.2455,-90.8 337.2455,-90.8 331.2455,-84.8 331.2455,-78.8 331.2455,-78.8 331.2455,-66.8 331.2455,-66.8 331.2455,-60.8 337.2455,-54.8 343.2455,-54.8 343.2455,-54.8 373.2455,-54.8 373.2455,-54.8 379.2455,-54.8 385.2455,-60.8 385.2455,-66.8 385.2455,-66.8 385.2455,-78.8 385.2455,-78.8 385.2455,-84.8 379.2455,-90.8 373.2455,-90.8"/>
<text text-anchor="middle" x="358.2455" y="-68.6" font-family="Verdana" font-size="14.00" fill="#000000">test</text>
</g>
<!-- CGO._Cfunc_test&#45;&gt;test -->
<g id="edge7" class="edge">
<title>CGO._Cfunc_test&#45;&gt;test</title>
<path fill="none" stroke="#000000" stroke-dasharray="1,5" d="M204.1059,-167.4893C208.9327,-163.6501 213.9723,-159.6101 218.6522,-155.8 235.0464,-142.4529 273.1772,-105.0755 291.6522,-94.8 300.8299,-89.6955 311.3825,-85.5333 321.3417,-82.2579"/>
<polygon fill="#add8e6" stroke="#000000" points="322.5023,-85.5628 331.0303,-79.276 320.4432,-78.8725 322.5023,-85.5628"/>
</g>
<!-- CGO.main -->
<g id="node3" class="node">
<title>CGO.main</title>
<g id="a_node3"><a xlink:title="CGO.main | defined in main.go:14&#10;at main.go:15: calling [CGO._Cfunc_test]&#10;at main.go:16: calling [CGO.C2GO]">
<path fill="#add8e6" stroke="#000000" stroke-width=".5" d="M58,-155.8C58,-155.8 28,-155.8 28,-155.8 22,-155.8 16,-149.8 16,-143.8 16,-143.8 16,-131.8 16,-131.8 16,-125.8 22,-119.8 28,-119.8 28,-119.8 58,-119.8 58,-119.8 64,-119.8 70,-125.8 70,-131.8 70,-131.8 70,-143.8 70,-143.8 70,-149.8 64,-155.8 58,-155.8"/>
<text text-anchor="middle" x="43" y="-133.6" font-family="Verdana" font-size="14.00" fill="#000000">main</text>
</a>
</g>
</g>
<!-- CGO.main&#45;&gt;CGO._Cfunc_test -->
<g id="edge2" class="edge">
<title>CGO.main&#45;&gt;CGO._Cfunc_test</title>
<g id="a_edge2"><a xlink:title="at main.go:15: calling [CGO._Cfunc_test]">
<path fill="none" stroke="#000000" d="M70.23,-147.2833C88.2583,-153.5619 112.3832,-161.9637 133.5,-169.318"/>
<polygon fill="#000000" stroke="#000000" points="132.3632,-172.6282 142.958,-172.6119 134.6654,-166.0176 132.3632,-172.6282"/>
</a>
</g>
</g>
<!-- CGO.C2GO -->
<g id="node4" class="node">
<title>CGO.C2GO</title>
<g id="a_node4"><a xlink:title="CGO.C2GO | defined in callee.go:6">
<path fill="#add8e6" stroke="#000000" stroke-width="1.5" d="M195.8261,-142.8C195.8261,-142.8 165.8261,-142.8 165.8261,-142.8 159.8261,-142.8 153.8261,-136.8 153.8261,-130.8 153.8261,-130.8 153.8261,-118.8 153.8261,-118.8 153.8261,-112.8 159.8261,-106.8 165.8261,-106.8 165.8261,-106.8 195.8261,-106.8 195.8261,-106.8 201.8261,-106.8 207.8261,-112.8 207.8261,-118.8 207.8261,-118.8 207.8261,-130.8 207.8261,-130.8 207.8261,-136.8 201.8261,-142.8 195.8261,-142.8"/>
<text text-anchor="middle" x="180.8261" y="-120.6" font-family="Verdana" font-size="14.00" fill="#000000">C2GO</text>
</a>
</g>
</g>
<!-- CGO.main&#45;&gt;CGO.C2GO -->
<g id="edge3" class="edge">
<title>CGO.main&#45;&gt;CGO.C2GO</title>
<g id="a_edge3"><a xlink:title="at main.go:16: calling [CGO.C2GO]">
<path fill="none" stroke="#000000" d="M70.23,-135.2316C91.1837,-133.2552 120.3729,-130.502 143.503,-128.3204"/>
<polygon fill="#000000" stroke="#000000" points="144.0256,-131.7867 153.6527,-127.363 143.3682,-124.8177 144.0256,-131.7867"/>
</a>
</g>
</g>
<!-- test&#45;&gt;CGO.C2GO -->
<g id="edge6" class="edge">
<title>test&#45;&gt;CGO.C2GO</title>
<path fill="none" stroke="#000000" stroke-dasharray="1,5" d="M331.1726,-80.7348C300.9775,-89.5847 251.9433,-103.9562 218.1274,-113.8673"/>
<polygon fill="#add8e6" stroke="#000000" points="216.771,-110.6176 208.1591,-116.789 218.7398,-117.335 216.771,-110.6176"/>
</g>
<!-- printf -->
<g id="node6" class="node">
<title>printf</title>
<path fill="#f0fff0" stroke="#000000" d="M539.8388,-121.8C539.8388,-121.8 509.8388,-121.8 509.8388,-121.8 503.8388,-121.8 497.8388,-115.8 497.8388,-109.8 497.8388,-109.8 497.8388,-97.8 497.8388,-97.8 497.8388,-91.8 503.8388,-85.8 509.8388,-85.8 509.8388,-85.8 539.8388,-85.8 539.8388,-85.8 545.8388,-85.8 551.8388,-91.8 551.8388,-97.8 551.8388,-97.8 551.8388,-109.8 551.8388,-109.8 551.8388,-115.8 545.8388,-121.8 539.8388,-121.8"/>
<text text-anchor="middle" x="524.8388" y="-99.6" font-family="Verdana" font-size="14.00" fill="#000000">printf</text>
</g>
<!-- test&#45;&gt;printf -->
<g id="edge4" class="edge">
<title>test&#45;&gt;printf</title>
<path fill="none" stroke="#000000" stroke-dasharray="1,5" d="M385.3824,-77.8497C413.2151,-83.0289 456.7064,-91.1218 487.7163,-96.8922"/>
<polygon fill="#add8e6" stroke="#000000" points="487.242,-100.3639 497.7136,-98.7525 488.5226,-93.4821 487.242,-100.3639"/>
</g>
<!-- fflush -->
<g id="node7" class="node">
<title>fflush</title>
<path fill="#f0fff0" stroke="#000000" d="M539.8388,-60.8C539.8388,-60.8 509.8388,-60.8 509.8388,-60.8 503.8388,-60.8 497.8388,-54.8 497.8388,-48.8 497.8388,-48.8 497.8388,-36.8 497.8388,-36.8 497.8388,-30.8 503.8388,-24.8 509.8388,-24.8 509.8388,-24.8 539.8388,-24.8 539.8388,-24.8 545.8388,-24.8 551.8388,-30.8 551.8388,-36.8 551.8388,-36.8 551.8388,-48.8 551.8388,-48.8 551.8388,-54.8 545.8388,-60.8 539.8388,-60.8"/>
<text text-anchor="middle" x="524.8388" y="-38.6" font-family="Verdana" font-size="14.00" fill="#000000">fflush</text>
</g>
<!-- test&#45;&gt;fflush -->
<g id="edge5" class="edge">
<title>test&#45;&gt;fflush</title>
<path fill="none" stroke="#000000" stroke-dasharray="1,5" d="M385.3824,-67.9132C413.2151,-62.9011 456.7064,-55.0692 487.7163,-49.485"/>
<polygon fill="#add8e6" stroke="#000000" points="488.4922,-52.9017 497.7136,-47.6847 487.2515,-46.0125 488.4922,-52.9017"/>
</g>
</g>
</svg>
