<?xml version="1.0" encoding="UTF-8" standalone="no"?>
<!DOCTYPE svg PUBLIC "-//W3C//DTD SVG 1.1//EN"
 "http://www.w3.org/Graphics/SVG/1.1/DTD/svg11.dtd">
<!-- Generated by graphviz version 2.40.1 (20161225.0304)
 -->
<!-- Title: gocallvis Pages: 1 -->
<svg width="569pt" height="439pt"
 viewBox="0.00 0.00 568.95 438.80" xmlns="http://www.w3.org/2000/svg" xmlns:xlink="http://www.w3.org/1999/xlink">
<g id="graph0" class="graph" transform="scale(1 1) rotate(0) translate(0 438.8)">
<title>gocallvis</title>
<polygon fill="#d3d3d3" stroke="transparent" points="0,0 0,-438.8 568.9482,-438.8 568.9482,0 0,0"/>
<text text-anchor="middle" x="23.9439" y="-8.2" font-family="Arial" font-size="14.00" fill="#000000">CGO</text>
<g id="clust1" class="cluster">
<title>cluster_focus</title>
<polygon fill="#e6ecfa" stroke="#000000" stroke-width=".5" points="8,-226.8 8,-430.8 449.9482,-430.8 449.9482,-226.8 8,-226.8"/>
<text text-anchor="middle" x="228.9741" y="-410.6" font-family="Arial" font-size="18.00" fill="#000000">main</text>
</g>
<!-- CGO._Cfunc_test -->
<g id="node1" class="node">
<title>CGO._Cfunc_test</title>
<g id="a_node1"><a xlink:title="CGO._Cfunc_test | defined in 53861886897a0786f9dec7f32be847304781fdb2801a094c7d3d2ec61cd5e5d3&#45;d:49&#10;at 53861886897a0786f9dec7f32be847304781fdb2801a094c7d3d2ec61cd5e5d3&#45;d:50: calling [CGO._cgo_runtime_cgocall]">
<path fill="#add8e6" stroke="#000000" stroke-width=".5" d="M215.0338,-331.8C215.0338,-331.8 163.7278,-331.8 163.7278,-331.8 157.7278,-331.8 151.7278,-325.8 151.7278,-319.8 151.7278,-319.8 151.7278,-307.8 151.7278,-307.8 151.7278,-301.8 157.7278,-295.8 163.7278,-295.8 163.7278,-295.8 215.0338,-295.8 215.0338,-295.8 221.0338,-295.8 227.0338,-301.8 227.0338,-307.8 227.0338,-307.8 227.0338,-319.8 227.0338,-319.8 227.0338,-325.8 221.0338,-331.8 215.0338,-331.8"/>
<text text-anchor="middle" x="189.3808" y="-309.6" font-family="Verdana" font-size="14.00" fill="#000000">_Cfunc_test</text>
</a>
</g>
</g>
<!-- CGO._cgo_runtime_cgocall -->
<g id="node2" class="node">
<title>CGO._cgo_runtime_cgocall</title>
<g id="a_node2"><a xlink:title="CGO._cgo_runtime_cgocall | defined in 53861886897a0786f9dec7f32be847304781fdb2801a094c7d3d2ec61cd5e5d3&#45;d:23">
<path fill="#add8e6" stroke="#000000" stroke-width=".5" d="M430.0416,-361.8C430.0416,-361.8 320.6682,-361.8 320.6682,-361.8 314.6682,-361.8 308.6682,-355.8 308.6682,-349.8 308.6682,-349.8 308.6682,-337.8 308.6682,-337.8 308.6682,-331.8 314.6682,-325.8 320.6682,-325.8 320.6682,-325.8 430.0416,-325.8 430.0416,-325.8 436.0416,-325.8 442.0416,-331.8 442.0416,-337.8 442.0416,-337.8 442.0416,-349.8 442.0416,-349.8 442.0416,-355.8 436.0416,-361.8 430.0416,-361.8"/>
<text text-anchor="middle" x="375.3549" y="-339.6" font-family="Verdana" font-size="14.00" fill="#000000">_cgo_runtime_cgocall</text>
</a>
</g>
</g>
<!-- CGO._Cfunc_test&#45;&gt;CGO._cgo_runtime_cgocall -->
<g id="edge1" class="edge">
<title>CGO._Cfunc_test&#45;&gt;CGO._cgo_runtime_cgocall</title>
<g id="a_edge1"><a xlink:title="at 53861886897a0786f9dec7f32be847304781fdb2801a094c7d3d2ec61cd5e5d3&#45;d:50: calling [CGO._cgo_runtime_cgocall]">
<path fill="none" stroke="#000000" d="M227.4642,-319.9433C248.0121,-323.258 274.1326,-327.4716 298.6861,-331.4323"/>
<polygon fill="#000000" stroke="#000000" points="298.2972,-334.9148 308.727,-333.0521 299.412,-328.0041 298.2972,-334.9148"/>
</a>
</g>
</g>
<!-- test -->
<g id="node8" class="node">
<title>test</title>
<path fill="#f0fff0" stroke="#000000" d="M390.3549,-157.8C390.3549,-157.8 360.3549,-157.8 360.3549,-157.8 354.3549,-157.8 348.3549,-151.8 348.3549,-145.8 348.3549,-145.8 348.3549,-133.8 348.3549,-133.8 348.3549,-127.8 354.3549,-121.8 360.3549,-121.8 360.3549,-121.8 390.3549,-121.8 390.3549,-121.8 396.3549,-121.8 402.3549,-127.8 402.3549,-133.8 402.3549,-133.8 402.3549,-145.8 402.3549,-145.8 402.3549,-151.8 396.3549,-157.8 390.3549,-157.8"/>
<text text-anchor="middle" x="375.3549" y="-135.6" font-family="Verdana" font-size="14.00" fill="#000000">test</text>
</g>
<!-- CGO._Cfunc_test&#45;&gt;test -->
<g id="edge12" class="edge">
<title>CGO._Cfunc_test&#45;&gt;test</title>
<path fill="none" stroke="#000000" stroke-dasharray="1,5" d="M221.6913,-295.4864C226.6837,-291.9463 231.567,-288.0138 235.7616,-283.8 278.2068,-241.1602 263.2236,-209.1197 308.7616,-169.8 317.4325,-162.3131 328.2771,-156.3743 338.6812,-151.8233"/>
<polygon fill="#add8e6" stroke="#000000" points="340.0854,-155.0308 348.0372,-148.0294 337.4548,-148.5439 340.0854,-155.0308"/>
</g>
<!-- CGO.main -->
<g id="node3" class="node">
<title>CGO.main</title>
<g id="a_node3"><a xlink:title="CGO.main | defined in main.go:8&#10;at main.go:9: calling [CGO._Cfunc_test]&#10;at main.go:10: calling [CGO._Cfunc_GO2C]&#10;at main.go:11: calling [CGO.C2GO]">
<path fill="#add8e6" stroke="#000000" stroke-width=".5" d="M58,-331.8C58,-331.8 28,-331.8 28,-331.8 22,-331.8 16,-325.8 16,-319.8 16,-319.8 16,-307.8 16,-307.8 16,-301.8 22,-295.8 28,-295.8 28,-295.8 58,-295.8 58,-295.8 64,-295.8 70,-301.8 70,-307.8 70,-307.8 70,-319.8 70,-319.8 70,-325.8 64,-331.8 58,-331.8"/>
<text text-anchor="middle" x="43" y="-309.6" font-family="Verdana" font-size="14.00" fill="#000000">main</text>
</a>
</g>
</g>
<!-- CGO.main&#45;&gt;CGO._Cfunc_test -->
<g id="edge2" class="edge">
<title>CGO.main&#45;&gt;CGO._Cfunc_test</title>
<g id="a_edge2"><a xlink:title="at main.go:9: calling [CGO._Cfunc_test]">
<path fill="none" stroke="#000000" d="M70.19,-313.8C90.1402,-313.8 117.7586,-313.8 141.3867,-313.8"/>
<polygon fill="#000000" stroke="#000000" points="141.5764,-317.3001 151.5763,-313.8 141.5763,-310.3001 141.5764,-317.3001"/>
</a>
</g>
</g>
<!-- CGO._Cfunc_GO2C -->
<g id="node4" class="node">
<title>CGO._Cfunc_GO2C</title>
<g id="a_node4"><a xlink:title="CGO._Cfunc_GO2C | defined in 53861886897a0786f9dec7f32be847304781fdb2801a094c7d3d2ec61cd5e5d3&#45;d:37&#10;at 53861886897a0786f9dec7f32be847304781fdb2801a094c7d3d2ec61cd5e5d3&#45;d:38: calling [CGO._cgo_runtime_cgocall]">
<path fill="#add8e6" stroke="#000000" stroke-width=".5" d="M223.6427,-392.8C223.6427,-392.8 155.1189,-392.8 155.1189,-392.8 149.1189,-392.8 143.1189,-386.8 143.1189,-380.8 143.1189,-380.8 143.1189,-368.8 143.1189,-368.8 143.1189,-362.8 149.1189,-356.8 155.1189,-356.8 155.1189,-356.8 223.6427,-356.8 223.6427,-356.8 229.6427,-356.8 235.6427,-362.8 235.6427,-368.8 235.6427,-368.8 235.6427,-380.8 235.6427,-380.8 235.6427,-386.8 229.6427,-392.8 223.6427,-392.8"/>
<text text-anchor="middle" x="189.3808" y="-370.6" font-family="Verdana" font-size="14.00" fill="#000000">_Cfunc_GO2C</text>
</a>
</g>
</g>
<!-- CGO.main&#45;&gt;CGO._Cfunc_GO2C -->
<g id="edge4" class="edge">
<title>CGO.main&#45;&gt;CGO._Cfunc_GO2C</title>
<g id="a_edge4"><a xlink:title="at main.go:10: calling [CGO._Cfunc_GO2C]">
<path fill="none" stroke="#000000" d="M70.19,-325.1307C88.7827,-332.8786 114.0357,-343.4021 136.5118,-352.7684"/>
<polygon fill="#000000" stroke="#000000" points="135.37,-356.0843 145.9469,-356.7002 138.0627,-349.6228 135.37,-356.0843"/>
</a>
</g>
</g>
<!-- CGO.C2GO -->
<g id="node5" class="node">
<title>CGO.C2GO</title>
<g id="a_node5"><a xlink:title="CGO.C2GO | defined in callee.go:9">
<path fill="#add8e6" stroke="#000000" stroke-width="1.5" d="M204.3808,-270.8C204.3808,-270.8 174.3808,-270.8 174.3808,-270.8 168.3808,-270.8 162.3808,-264.8 162.3808,-258.8 162.3808,-258.8 162.3808,-246.8 162.3808,-246.8 162.3808,-240.8 168.3808,-234.8 174.3808,-234.8 174.3808,-234.8 204.3808,-234.8 204.3808,-234.8 210.3808,-234.8 216.3808,-240.8 216.3808,-246.8 216.3808,-246.8 216.3808,-258.8 216.3808,-258.8 216.3808,-264.8 210.3808,-270.8 204.3808,-270.8"/>
<text text-anchor="middle" x="189.3808" y="-248.6" font-family="Verdana" font-size="14.00" fill="#000000">C2GO</text>
</a>
</g>
</g>
<!-- CGO.main&#45;&gt;CGO.C2GO -->
<g id="edge5" class="edge">
<title>CGO.main&#45;&gt;CGO.C2GO</title>
<g id="a_edge5"><a xlink:title="at main.go:11: calling [CGO.C2GO]">
<path fill="none" stroke="#000000" d="M70.19,-302.4693C93.5039,-292.7539 127.2899,-278.6746 152.942,-267.9848"/>
<polygon fill="#000000" stroke="#000000" points="154.4521,-271.1473 162.3364,-264.07 151.7594,-264.6859 154.4521,-271.1473"/>
</a>
</g>
</g>
<!-- CGO._Cfunc_GO2C&#45;&gt;CGO._cgo_runtime_cgocall -->
<g id="edge3" class="edge">
<title>CGO._Cfunc_GO2C&#45;&gt;CGO._cgo_runtime_cgocall</title>
<g id="a_edge3"><a xlink:title="at 53861886897a0786f9dec7f32be847304781fdb2801a094c7d3d2ec61cd5e5d3&#45;d:38: calling [CGO._cgo_runtime_cgocall]">
<path fill="none" stroke="#000000" d="M235.8302,-367.0574C254.7772,-363.8991 277.1973,-360.1619 298.4597,-356.6177"/>
<polygon fill="#000000" stroke="#000000" points="299.1678,-360.048 308.4562,-354.9513 298.0168,-353.1433 299.1678,-360.048"/>
</a>
</g>
</g>
<!-- GO2C -->
<g id="node10" class="node">
<title>GO2C</title>
<path fill="#f0fff0" stroke="#000000" d="M390.3549,-218.8C390.3549,-218.8 360.3549,-218.8 360.3549,-218.8 354.3549,-218.8 348.3549,-212.8 348.3549,-206.8 348.3549,-206.8 348.3549,-194.8 348.3549,-194.8 348.3549,-188.8 354.3549,-182.8 360.3549,-182.8 360.3549,-182.8 390.3549,-182.8 390.3549,-182.8 396.3549,-182.8 402.3549,-188.8 402.3549,-194.8 402.3549,-194.8 402.3549,-206.8 402.3549,-206.8 402.3549,-212.8 396.3549,-218.8 390.3549,-218.8"/>
<text text-anchor="middle" x="375.3549" y="-196.6" font-family="Verdana" font-size="14.00" fill="#000000">GO2C</text>
</g>
<!-- CGO._Cfunc_GO2C&#45;&gt;GO2C -->
<g id="edge13" class="edge">
<title>CGO._Cfunc_GO2C&#45;&gt;GO2C</title>
<path fill="none" stroke="#000000" stroke-dasharray="1,5" d="M221.8023,-356.5952C226.7813,-353.042 231.6314,-349.077 235.7616,-344.8 279.6551,-299.3462 259.4435,-262.3021 308.7616,-222.8 317.3317,-215.9357 328.1274,-211.1775 338.5174,-207.8934"/>
<polygon fill="#add8e6" stroke="#000000" points="339.5754,-211.232 348.2687,-205.1758 337.6961,-204.489 339.5754,-211.232"/>
</g>
<!-- test1 -->
<g id="node6" class="node">
<title>test1</title>
<path fill="#f0fff0" stroke="#000000" d="M390.3549,-60.8C390.3549,-60.8 360.3549,-60.8 360.3549,-60.8 354.3549,-60.8 348.3549,-54.8 348.3549,-48.8 348.3549,-48.8 348.3549,-36.8 348.3549,-36.8 348.3549,-30.8 354.3549,-24.8 360.3549,-24.8 360.3549,-24.8 390.3549,-24.8 390.3549,-24.8 396.3549,-24.8 402.3549,-30.8 402.3549,-36.8 402.3549,-36.8 402.3549,-48.8 402.3549,-48.8 402.3549,-54.8 396.3549,-60.8 390.3549,-60.8"/>
<text text-anchor="middle" x="375.3549" y="-38.6" font-family="Verdana" font-size="14.00" fill="#000000">test1</text>
</g>
<!-- printf -->
<g id="node7" class="node">
<title>printf</title>
<path fill="#f0fff0" stroke="#000000" d="M556.9482,-111.8C556.9482,-111.8 526.9482,-111.8 526.9482,-111.8 520.9482,-111.8 514.9482,-105.8 514.9482,-99.8 514.9482,-99.8 514.9482,-87.8 514.9482,-87.8 514.9482,-81.8 520.9482,-75.8 526.9482,-75.8 526.9482,-75.8 556.9482,-75.8 556.9482,-75.8 562.9482,-75.8 568.9482,-81.8 568.9482,-87.8 568.9482,-87.8 568.9482,-99.8 568.9482,-99.8 568.9482,-105.8 562.9482,-111.8 556.9482,-111.8"/>
<text text-anchor="middle" x="541.9482" y="-89.6" font-family="Verdana" font-size="14.00" fill="#000000">printf</text>
</g>
<!-- test1&#45;&gt;printf -->
<g id="edge6" class="edge">
<title>test1&#45;&gt;printf</title>
<path fill="none" stroke="#000000" stroke-dasharray="1,5" d="M402.4918,-51.1075C430.4455,-59.6652 474.1943,-73.0582 505.2295,-82.5591"/>
<polygon fill="#add8e6" stroke="#000000" points="504.2364,-85.9154 514.823,-85.496 506.2855,-79.222 504.2364,-85.9154"/>
</g>
<!-- test&#45;&gt;CGO.C2GO -->
<g id="edge9" class="edge">
<title>test&#45;&gt;CGO.C2GO</title>
<path fill="none" stroke="#000000" stroke-dasharray="1,5" d="M348.227,-150.6746C335.9207,-155.9467 321.3394,-162.6751 308.7616,-169.8 277.659,-187.4187 244.4368,-210.9424 220.9571,-228.4472"/>
<polygon fill="#add8e6" stroke="#000000" points="218.6598,-225.7954 212.7694,-234.6019 222.8659,-231.3908 218.6598,-225.7954"/>
</g>
<!-- test&#45;&gt;printf -->
<g id="edge7" class="edge">
<title>test&#45;&gt;printf</title>
<path fill="none" stroke="#000000" stroke-dasharray="1,5" d="M402.4918,-132.3069C430.3245,-124.6217 473.8158,-112.6128 504.8257,-104.0503"/>
<polygon fill="#add8e6" stroke="#000000" points="506.1153,-107.3253 514.823,-101.2899 504.2521,-100.5778 506.1153,-107.3253"/>
</g>
<!-- fflush -->
<g id="node9" class="node">
<title>fflush</title>
<path fill="#f0fff0" stroke="#000000" d="M556.9482,-218.8C556.9482,-218.8 526.9482,-218.8 526.9482,-218.8 520.9482,-218.8 514.9482,-212.8 514.9482,-206.8 514.9482,-206.8 514.9482,-194.8 514.9482,-194.8 514.9482,-188.8 520.9482,-182.8 526.9482,-182.8 526.9482,-182.8 556.9482,-182.8 556.9482,-182.8 562.9482,-182.8 568.9482,-188.8 568.9482,-194.8 568.9482,-194.8 568.9482,-206.8 568.9482,-206.8 568.9482,-212.8 562.9482,-218.8 556.9482,-218.8"/>
<text text-anchor="middle" x="541.9482" y="-196.6" font-family="Verdana" font-size="14.00" fill="#000000">fflush</text>
</g>
<!-- test&#45;&gt;fflush -->
<g id="edge8" class="edge">
<title>test&#45;&gt;fflush</title>
<path fill="none" stroke="#000000" stroke-dasharray="1,5" d="M402.4918,-149.7365C430.4455,-159.972 474.1943,-175.9912 505.2295,-187.355"/>
<polygon fill="#add8e6" stroke="#000000" points="504.2292,-190.716 514.823,-190.8678 506.6361,-184.1428 504.2292,-190.716"/>
</g>
<!-- GO2C&#45;&gt;printf -->
<g id="edge10" class="edge">
<title>GO2C&#45;&gt;printf</title>
<path fill="none" stroke="#000000" stroke-dasharray="1,5" d="M402.5181,-191.7305C417.0856,-186.3265 435.0521,-178.7729 449.9482,-169.8 473.9557,-155.3387 498.2811,-134.9382 515.8844,-118.9139"/>
<polygon fill="#add8e6" stroke="#000000" points="518.5078,-121.2552 523.4741,-111.8964 513.7555,-116.1155 518.5078,-121.2552"/>
</g>
<!-- GO2C&#45;&gt;fflush -->
<g id="edge11" class="edge">
<title>GO2C&#45;&gt;fflush</title>
<path fill="none" stroke="#000000" stroke-dasharray="1,5" d="M402.5734,-208.1318C423.4401,-212.8655 452.9705,-217.6516 478.9482,-214.8 487.4205,-213.87 496.4204,-212.2565 504.8864,-210.4479"/>
<polygon fill="#add8e6" stroke="#000000" points="505.901,-213.8066 514.8768,-208.1777 504.3499,-206.9806 505.901,-213.8066"/>
</g>
</g>
</svg>
