<?xml version="1.0" encoding="UTF-8" standalone="no"?>
<!DOCTYPE svg PUBLIC "-//W3C//DTD SVG 1.1//EN"
 "http://www.w3.org/Graphics/SVG/1.1/DTD/svg11.dtd">
<!-- Generated by graphviz version 2.40.1 (20161225.0304)
 -->
<!-- Title: gocallvis Pages: 1 -->
<svg width="569pt" height="444pt"
 viewBox="0.00 0.00 568.95 443.80" xmlns="http://www.w3.org/2000/svg" xmlns:xlink="http://www.w3.org/1999/xlink">
<g id="graph0" class="graph" transform="scale(1 1) rotate(0) translate(0 443.8)">
<title>gocallvis</title>
<polygon fill="#d3d3d3" stroke="transparent" points="0,0 0,-443.8 568.9482,-443.8 568.9482,0 0,0"/>
<text text-anchor="middle" x="23.9439" y="-8.2" font-family="Arial" font-size="14.00" fill="#000000">CGO</text>
<g id="clust1" class="cluster">
<title>cluster_focus</title>
<polygon fill="#e6ecfa" stroke="#000000" stroke-width=".5" points="8,-231.8 8,-435.8 449.9482,-435.8 449.9482,-231.8 8,-231.8"/>
<text text-anchor="middle" x="228.9741" y="-415.6" font-family="Arial" font-size="18.00" fill="#000000">main</text>
</g>
<!-- CGO._Cfunc_test -->
<g id="node1" class="node">
<title>CGO._Cfunc_test</title>
<g id="a_node1"><a xlink:title="CGO._Cfunc_test | defined in 53861886897a0786f9dec7f32be847304781fdb2801a094c7d3d2ec61cd5e5d3&#45;d:49&#10;at 53861886897a0786f9dec7f32be847304781fdb2801a094c7d3d2ec61cd5e5d3&#45;d:50: calling [CGO._cgo_runtime_cgocall]">
<path fill="#add8e6" stroke="#000000" stroke-width=".5" d="M215.0338,-336.8C215.0338,-336.8 163.7278,-336.8 163.7278,-336.8 157.7278,-336.8 151.7278,-330.8 151.7278,-324.8 151.7278,-324.8 151.7278,-312.8 151.7278,-312.8 151.7278,-306.8 157.7278,-300.8 163.7278,-300.8 163.7278,-300.8 215.0338,-300.8 215.0338,-300.8 221.0338,-300.8 227.0338,-306.8 227.0338,-312.8 227.0338,-312.8 227.0338,-324.8 227.0338,-324.8 227.0338,-330.8 221.0338,-336.8 215.0338,-336.8"/>
<text text-anchor="middle" x="189.3808" y="-314.6" font-family="Verdana" font-size="14.00" fill="#000000">_Cfunc_test</text>
</a>
</g>
</g>
<!-- CGO._cgo_runtime_cgocall -->
<g id="node2" class="node">
<title>CGO._cgo_runtime_cgocall</title>
<g id="a_node2"><a xlink:title="CGO._cgo_runtime_cgocall | defined in 53861886897a0786f9dec7f32be847304781fdb2801a094c7d3d2ec61cd5e5d3&#45;d:23">
<path fill="#add8e6" stroke="#000000" stroke-width=".5" d="M430.0416,-366.8C430.0416,-366.8 320.6682,-366.8 320.6682,-366.8 314.6682,-366.8 308.6682,-360.8 308.6682,-354.8 308.6682,-354.8 308.6682,-342.8 308.6682,-342.8 308.6682,-336.8 314.6682,-330.8 320.6682,-330.8 320.6682,-330.8 430.0416,-330.8 430.0416,-330.8 436.0416,-330.8 442.0416,-336.8 442.0416,-342.8 442.0416,-342.8 442.0416,-354.8 442.0416,-354.8 442.0416,-360.8 436.0416,-366.8 430.0416,-366.8"/>
<text text-anchor="middle" x="375.3549" y="-344.6" font-family="Verdana" font-size="14.00" fill="#000000">_cgo_runtime_cgocall</text>
</a>
</g>
</g>
<!-- CGO._Cfunc_test&#45;&gt;CGO._cgo_runtime_cgocall -->
<g id="edge4" class="edge">
<title>CGO._Cfunc_test&#45;&gt;CGO._cgo_runtime_cgocall</title>
<g id="a_edge4"><a xlink:title="at 53861886897a0786f9dec7f32be847304781fdb2801a094c7d3d2ec61cd5e5d3&#45;d:50: calling [CGO._cgo_runtime_cgocall]">
<path fill="none" stroke="#000000" d="M227.4642,-324.9433C248.0121,-328.258 274.1326,-332.4716 298.6861,-336.4323"/>
<polygon fill="#000000" stroke="#000000" points="298.2972,-339.9148 308.727,-338.0521 299.412,-333.0041 298.2972,-339.9148"/>
</a>
</g>
</g>
<!-- test -->
<g id="node9" class="node">
<title>test</title>
<path fill="#f0fff0" stroke="#000000" d="M390.3549,-162.8C390.3549,-162.8 360.3549,-162.8 360.3549,-162.8 354.3549,-162.8 348.3549,-156.8 348.3549,-150.8 348.3549,-150.8 348.3549,-138.8 348.3549,-138.8 348.3549,-132.8 354.3549,-126.8 360.3549,-126.8 360.3549,-126.8 390.3549,-126.8 390.3549,-126.8 396.3549,-126.8 402.3549,-132.8 402.3549,-138.8 402.3549,-138.8 402.3549,-150.8 402.3549,-150.8 402.3549,-156.8 396.3549,-162.8 390.3549,-162.8"/>
<text text-anchor="middle" x="375.3549" y="-140.6" font-family="Verdana" font-size="14.00" fill="#000000">test</text>
</g>
<!-- CGO._Cfunc_test&#45;&gt;test -->
<g id="edge12" class="edge">
<title>CGO._Cfunc_test&#45;&gt;test</title>
<path fill="none" stroke="#000000" stroke-dasharray="1,5" d="M221.6913,-300.4864C226.6837,-296.9463 231.567,-293.0138 235.7616,-288.8 278.2068,-246.1602 263.2236,-214.1197 308.7616,-174.8 317.4325,-167.3131 328.2771,-161.3743 338.6812,-156.8233"/>
<polygon fill="#add8e6" stroke="#000000" points="340.0854,-160.0308 348.0372,-153.0294 337.4548,-153.5439 340.0854,-160.0308"/>
</g>
<!-- CGO.main -->
<g id="node3" class="node">
<title>CGO.main</title>
<g id="a_node3"><a xlink:title="CGO.main | defined in main.go:8&#10;at main.go:10: calling [CGO._Cfunc_GO2C]&#10;at main.go:11: calling [CGO.C2GO]&#10;at main.go:9: calling [CGO._Cfunc_test]">
<path fill="#add8e6" stroke="#000000" stroke-width=".5" d="M58,-336.8C58,-336.8 28,-336.8 28,-336.8 22,-336.8 16,-330.8 16,-324.8 16,-324.8 16,-312.8 16,-312.8 16,-306.8 22,-300.8 28,-300.8 28,-300.8 58,-300.8 58,-300.8 64,-300.8 70,-306.8 70,-312.8 70,-312.8 70,-324.8 70,-324.8 70,-330.8 64,-336.8 58,-336.8"/>
<text text-anchor="middle" x="43" y="-314.6" font-family="Verdana" font-size="14.00" fill="#000000">main</text>
</a>
</g>
</g>
<!-- CGO.main&#45;&gt;CGO._Cfunc_test -->
<g id="edge5" class="edge">
<title>CGO.main&#45;&gt;CGO._Cfunc_test</title>
<g id="a_edge5"><a xlink:title="at main.go:9: calling [CGO._Cfunc_test]">
<path fill="none" stroke="#000000" d="M70.19,-318.8C90.1402,-318.8 117.7586,-318.8 141.3867,-318.8"/>
<polygon fill="#000000" stroke="#000000" points="141.5764,-322.3001 151.5763,-318.8 141.5763,-315.3001 141.5764,-322.3001"/>
</a>
</g>
</g>
<!-- CGO._Cfunc_GO2C -->
<g id="node4" class="node">
<title>CGO._Cfunc_GO2C</title>
<g id="a_node4"><a xlink:title="CGO._Cfunc_GO2C | defined in 53861886897a0786f9dec7f32be847304781fdb2801a094c7d3d2ec61cd5e5d3&#45;d:37&#10;at 53861886897a0786f9dec7f32be847304781fdb2801a094c7d3d2ec61cd5e5d3&#45;d:38: calling [CGO._cgo_runtime_cgocall]">
<path fill="#add8e6" stroke="#000000" stroke-width=".5" d="M223.6427,-397.8C223.6427,-397.8 155.1189,-397.8 155.1189,-397.8 149.1189,-397.8 143.1189,-391.8 143.1189,-385.8 143.1189,-385.8 143.1189,-373.8 143.1189,-373.8 143.1189,-367.8 149.1189,-361.8 155.1189,-361.8 155.1189,-361.8 223.6427,-361.8 223.6427,-361.8 229.6427,-361.8 235.6427,-367.8 235.6427,-373.8 235.6427,-373.8 235.6427,-385.8 235.6427,-385.8 235.6427,-391.8 229.6427,-397.8 223.6427,-397.8"/>
<text text-anchor="middle" x="189.3808" y="-375.6" font-family="Verdana" font-size="14.00" fill="#000000">_Cfunc_GO2C</text>
</a>
</g>
</g>
<!-- CGO.main&#45;&gt;CGO._Cfunc_GO2C -->
<g id="edge2" class="edge">
<title>CGO.main&#45;&gt;CGO._Cfunc_GO2C</title>
<g id="a_edge2"><a xlink:title="at main.go:10: calling [CGO._Cfunc_GO2C]">
<path fill="none" stroke="#000000" d="M70.19,-330.1307C88.7827,-337.8786 114.0357,-348.4021 136.5118,-357.7684"/>
<polygon fill="#000000" stroke="#000000" points="135.37,-361.0843 145.9469,-361.7002 138.0627,-354.6228 135.37,-361.0843"/>
</a>
</g>
</g>
<!-- CGO.C2GO -->
<g id="node5" class="node">
<title>CGO.C2GO</title>
<g id="a_node5"><a xlink:title="CGO.C2GO | defined in callee.go:9">
<path fill="#add8e6" stroke="#000000" stroke-width="1.5" d="M204.3808,-275.8C204.3808,-275.8 174.3808,-275.8 174.3808,-275.8 168.3808,-275.8 162.3808,-269.8 162.3808,-263.8 162.3808,-263.8 162.3808,-251.8 162.3808,-251.8 162.3808,-245.8 168.3808,-239.8 174.3808,-239.8 174.3808,-239.8 204.3808,-239.8 204.3808,-239.8 210.3808,-239.8 216.3808,-245.8 216.3808,-251.8 216.3808,-251.8 216.3808,-263.8 216.3808,-263.8 216.3808,-269.8 210.3808,-275.8 204.3808,-275.8"/>
<text text-anchor="middle" x="189.3808" y="-253.6" font-family="Verdana" font-size="14.00" fill="#000000">C2GO</text>
</a>
</g>
</g>
<!-- CGO.main&#45;&gt;CGO.C2GO -->
<g id="edge3" class="edge">
<title>CGO.main&#45;&gt;CGO.C2GO</title>
<g id="a_edge3"><a xlink:title="at main.go:11: calling [CGO.C2GO]">
<path fill="none" stroke="#000000" d="M70.19,-307.4693C93.5039,-297.7539 127.2899,-283.6746 152.942,-272.9848"/>
<polygon fill="#000000" stroke="#000000" points="154.4521,-276.1473 162.3364,-269.07 151.7594,-269.6859 154.4521,-276.1473"/>
</a>
</g>
</g>
<!-- CGO._Cfunc_GO2C&#45;&gt;CGO._cgo_runtime_cgocall -->
<g id="edge1" class="edge">
<title>CGO._Cfunc_GO2C&#45;&gt;CGO._cgo_runtime_cgocall</title>
<g id="a_edge1"><a xlink:title="at 53861886897a0786f9dec7f32be847304781fdb2801a094c7d3d2ec61cd5e5d3&#45;d:38: calling [CGO._cgo_runtime_cgocall]">
<path fill="none" stroke="#000000" d="M235.8302,-372.0574C254.7772,-368.8991 277.1973,-365.1619 298.4597,-361.6177"/>
<polygon fill="#000000" stroke="#000000" points="299.1678,-365.048 308.4562,-359.9513 298.0168,-358.1433 299.1678,-365.048"/>
</a>
</g>
</g>
<!-- GO2C -->
<g id="node6" class="node">
<title>GO2C</title>
<path fill="#f0fff0" stroke="#000000" d="M390.3549,-223.8C390.3549,-223.8 360.3549,-223.8 360.3549,-223.8 354.3549,-223.8 348.3549,-217.8 348.3549,-211.8 348.3549,-211.8 348.3549,-199.8 348.3549,-199.8 348.3549,-193.8 354.3549,-187.8 360.3549,-187.8 360.3549,-187.8 390.3549,-187.8 390.3549,-187.8 396.3549,-187.8 402.3549,-193.8 402.3549,-199.8 402.3549,-199.8 402.3549,-211.8 402.3549,-211.8 402.3549,-217.8 396.3549,-223.8 390.3549,-223.8"/>
<text text-anchor="middle" x="375.3549" y="-201.6" font-family="Verdana" font-size="14.00" fill="#000000">GO2C</text>
</g>
<!-- CGO._Cfunc_GO2C&#45;&gt;GO2C -->
<g id="edge13" class="edge">
<title>CGO._Cfunc_GO2C&#45;&gt;GO2C</title>
<path fill="none" stroke="#000000" stroke-dasharray="1,5" d="M221.8023,-361.5952C226.7813,-358.042 231.6314,-354.077 235.7616,-349.8 279.6551,-304.3462 259.4435,-267.3021 308.7616,-227.8 317.3317,-220.9357 328.1274,-216.1775 338.5174,-212.8934"/>
<polygon fill="#add8e6" stroke="#000000" points="339.5754,-216.232 348.2687,-210.1758 337.6961,-209.489 339.5754,-216.232"/>
</g>
<!-- printf -->
<g id="node7" class="node">
<title>printf</title>
<path fill="#f0fff0" stroke="#000000" d="M556.9482,-111.8C556.9482,-111.8 526.9482,-111.8 526.9482,-111.8 520.9482,-111.8 514.9482,-105.8 514.9482,-99.8 514.9482,-99.8 514.9482,-87.8 514.9482,-87.8 514.9482,-81.8 520.9482,-75.8 526.9482,-75.8 526.9482,-75.8 556.9482,-75.8 556.9482,-75.8 562.9482,-75.8 568.9482,-81.8 568.9482,-87.8 568.9482,-87.8 568.9482,-99.8 568.9482,-99.8 568.9482,-105.8 562.9482,-111.8 556.9482,-111.8"/>
<text text-anchor="middle" x="541.9482" y="-89.6" font-family="Verdana" font-size="14.00" fill="#000000">printf</text>
</g>
<!-- GO2C&#45;&gt;printf -->
<g id="edge6" class="edge">
<title>GO2C&#45;&gt;printf</title>
<path fill="none" stroke="#000000" stroke-dasharray="1,5" d="M402.6321,-196.9165C417.233,-191.5669 435.1951,-184.006 449.9482,-174.8 474.9981,-159.1687 499.9198,-136.6873 517.4938,-119.3729"/>
<polygon fill="#add8e6" stroke="#000000" points="520.4398,-121.3756 525.0253,-111.8245 515.4845,-116.4314 520.4398,-121.3756"/>
</g>
<!-- fflush -->
<g id="node8" class="node">
<title>fflush</title>
<path fill="#f0fff0" stroke="#000000" d="M556.9482,-238.8C556.9482,-238.8 526.9482,-238.8 526.9482,-238.8 520.9482,-238.8 514.9482,-232.8 514.9482,-226.8 514.9482,-226.8 514.9482,-214.8 514.9482,-214.8 514.9482,-208.8 520.9482,-202.8 526.9482,-202.8 526.9482,-202.8 556.9482,-202.8 556.9482,-202.8 562.9482,-202.8 568.9482,-208.8 568.9482,-214.8 568.9482,-214.8 568.9482,-226.8 568.9482,-226.8 568.9482,-232.8 562.9482,-238.8 556.9482,-238.8"/>
<text text-anchor="middle" x="541.9482" y="-216.6" font-family="Verdana" font-size="14.00" fill="#000000">fflush</text>
</g>
<!-- GO2C&#45;&gt;fflush -->
<g id="edge7" class="edge">
<title>GO2C&#45;&gt;fflush</title>
<path fill="none" stroke="#000000" stroke-dasharray="1,5" d="M402.4918,-208.2434C430.3245,-210.7494 473.8158,-214.6654 504.8257,-217.4575"/>
<polygon fill="#add8e6" stroke="#000000" points="504.5493,-220.9467 514.823,-218.3577 505.1771,-213.9749 504.5493,-220.9467"/>
</g>
<!-- test&#45;&gt;CGO.C2GO -->
<g id="edge10" class="edge">
<title>test&#45;&gt;CGO.C2GO</title>
<path fill="none" stroke="#000000" stroke-dasharray="1,5" d="M348.227,-155.6746C335.9207,-160.9467 321.3394,-167.6751 308.7616,-174.8 277.659,-192.4187 244.4368,-215.9424 220.9571,-233.4472"/>
<polygon fill="#add8e6" stroke="#000000" points="218.6598,-230.7954 212.7694,-239.6019 222.8659,-236.3908 218.6598,-230.7954"/>
</g>
<!-- test&#45;&gt;printf -->
<g id="edge8" class="edge">
<title>test&#45;&gt;printf</title>
<path fill="none" stroke="#000000" stroke-dasharray="1,5" d="M402.4918,-136.4925C430.4455,-127.9348 474.1943,-114.5418 505.2295,-105.0409"/>
<polygon fill="#add8e6" stroke="#000000" points="506.2855,-108.378 514.823,-102.104 504.2364,-101.6846 506.2855,-108.378"/>
</g>
<!-- test&#45;&gt;fflush -->
<g id="edge9" class="edge">
<title>test&#45;&gt;fflush</title>
<path fill="none" stroke="#000000" stroke-dasharray="1,5" d="M402.5085,-155.1078C416.7512,-160.6683 434.4201,-167.8093 449.9482,-174.8 468.6334,-183.212 489.0524,-193.3252 505.8966,-201.9242"/>
<polygon fill="#add8e6" stroke="#000000" points="504.3587,-205.069 514.8529,-206.5253 507.5574,-198.8425 504.3587,-205.069"/>
</g>
<!-- test1 -->
<g id="node10" class="node">
<title>test1</title>
<path fill="#f0fff0" stroke="#000000" d="M390.3549,-60.8C390.3549,-60.8 360.3549,-60.8 360.3549,-60.8 354.3549,-60.8 348.3549,-54.8 348.3549,-48.8 348.3549,-48.8 348.3549,-36.8 348.3549,-36.8 348.3549,-30.8 354.3549,-24.8 360.3549,-24.8 360.3549,-24.8 390.3549,-24.8 390.3549,-24.8 396.3549,-24.8 402.3549,-30.8 402.3549,-36.8 402.3549,-36.8 402.3549,-48.8 402.3549,-48.8 402.3549,-54.8 396.3549,-60.8 390.3549,-60.8"/>
<text text-anchor="middle" x="375.3549" y="-38.6" font-family="Verdana" font-size="14.00" fill="#000000">test1</text>
</g>
<!-- test1&#45;&gt;printf -->
<g id="edge11" class="edge">
<title>test1&#45;&gt;printf</title>
<path fill="none" stroke="#000000" stroke-dasharray="1,5" d="M402.4918,-51.1075C430.4455,-59.6652 474.1943,-73.0582 505.2295,-82.5591"/>
<polygon fill="#add8e6" stroke="#000000" points="504.2364,-85.9154 514.823,-85.496 506.2855,-79.222 504.2364,-85.9154"/>
</g>
</g>
</svg>
